<svg width="509" height="436" viewBox="0 0 509 436" fill="none" xmlns="http://www.w3.org/2000/svg">
<g clip-path="url(#clip0_204_1600)">
<path d="M457.345 409.765C431.576 390.148 387.466 341.51 445.505 265.128C517.357 170.639 431.344 131.984 348.813 136.046C282.416 139.297 207.778 55.8345 133.257 70.809C34.3586 90.5427 98.5494 175.63 31.5727 221.598C-25.6535 260.717 -1.04509 379.933 73.3606 409.765H457.345Z" fill="#DCEDF9"/>
<path d="M501.919 236.108C501.571 222.062 488.454 216.723 479.748 226.822C474.757 232.626 469.998 240.984 469.069 252.127C467.096 277.085 488.918 269.888 497.044 256.539C500.642 250.734 502.151 243.189 501.919 236.108Z" fill="#DCEDF9"/>
<path d="M237.146 50.9593C223.101 51.3076 217.645 64.3086 227.86 73.1308C233.664 78.1223 242.021 82.8816 253.165 83.8102C278.121 85.8997 270.925 63.9604 257.576 55.8347C251.772 52.3523 244.227 50.8432 237.146 50.9593Z" fill="#DCEDF9"/>
<path d="M45.3855 187.006C50.8412 174.121 41.3228 163.674 29.1347 169.246C22.17 172.38 14.3928 178.068 8.82112 187.819C-3.4831 209.642 19.3842 212.196 32.3849 203.49C37.9566 199.775 42.5997 193.507 45.3855 187.006Z" fill="#DCEDF9"/>
<path d="M255.371 436C385.638 436 491.24 427.477 491.24 416.963C491.24 406.449 385.638 397.925 255.371 397.925C125.103 397.925 19.501 406.449 19.501 416.963C19.501 427.477 125.103 436 255.371 436Z" fill="#DCEDF9"/>
<path d="M417.067 413.712C417.415 415.569 417.995 417.194 418.692 418.82H456.997C458.506 415.221 458.506 411.507 456.301 408.256C442.371 388.406 459.551 388.755 462.337 375.173C465.355 360.315 451.077 367.976 455.488 348.01C461.292 320.963 448.64 307.962 442.255 323.633C436.219 338.376 439.353 344.412 424.496 355.439C412.191 364.61 433.666 379.236 421.478 393.746C416.254 399.898 415.906 407.328 417.067 413.712Z" fill="#007FE9"/>
<path d="M433.549 418.82C437.844 383.763 445.505 345.456 445.621 344.992C445.737 344.412 445.389 343.947 444.809 343.831C444.228 343.715 443.764 344.063 443.648 344.644C443.532 345.108 435.871 383.647 431.46 418.936H433.549V418.82Z" fill="#0050DB"/>
<path d="M480.097 418.82C479.981 418.588 479.981 418.239 479.865 418.007C469.766 388.407 490.892 395.139 499.134 379.352C508.188 362.056 487.874 366.467 500.41 343.367C517.358 312.025 506.446 291.479 492.865 308.427C480.097 324.446 481.722 333.036 459.551 341.278C441.095 348.127 462.221 374.013 442.023 387.478C433.434 393.282 430.3 402.22 429.487 410.578C429.255 413.48 429.371 416.266 429.951 418.82H480.097Z" fill="#00A8FF"/>
<path d="M449.801 418.82C467.444 378.308 489.267 336.518 489.615 335.938C489.963 335.358 489.731 334.545 489.035 334.313C488.454 333.965 487.642 334.197 487.41 334.893C487.061 335.474 464.891 377.959 447.131 418.936H449.801V418.82Z" fill="#007FE9"/>
<path d="M93.2107 413.712C92.8625 415.569 92.2821 417.194 91.5856 418.82H53.28C51.771 415.221 51.771 411.507 53.9765 408.256C67.9058 388.406 50.7263 388.755 47.9405 375.173C44.9224 360.315 59.2 367.976 54.789 348.01C48.9852 320.963 61.6376 307.962 68.0219 323.633C74.0579 338.376 70.9238 344.412 85.7817 355.439C98.086 364.61 76.6116 379.236 88.7998 393.746C94.0232 399.898 94.3715 407.328 93.2107 413.712Z" fill="#007FE9"/>
<path d="M76.7281 418.82C72.4332 383.763 64.7721 345.456 64.656 344.992C64.54 344.412 64.8882 343.947 65.4686 343.831C66.049 343.715 66.5133 344.063 66.6293 344.644C66.7454 345.108 74.4065 383.647 78.8175 418.936H76.7281V418.82Z" fill="#0050DB"/>
<path d="M30.1802 418.82C30.2962 418.588 30.2962 418.239 30.4123 418.007C40.5111 388.407 19.3849 395.139 11.1434 379.352C2.08939 362.056 22.403 366.467 9.86658 343.367C-7.08074 312.025 3.83055 291.479 17.4116 308.427C30.1802 324.446 28.5551 333.036 50.7259 341.278C69.1822 348.127 48.0561 374.013 68.2536 387.478C76.8433 393.282 79.9774 402.22 80.79 410.578C81.0221 413.48 80.906 416.266 80.3256 418.82H30.1802Z" fill="#00A8FF"/>
<path d="M60.4765 418.82C42.8327 378.308 21.0102 336.518 20.6619 335.938C20.3137 335.358 20.5459 334.545 21.2423 334.313C21.8227 333.965 22.6353 334.197 22.8674 334.893C23.2156 335.474 45.3865 377.959 63.1463 418.936H60.4765V418.82Z" fill="#007FE9"/>
<path d="M141.499 418.82H144.4L139.873 406.283C140.454 401.872 142.311 393.398 147.883 383.88C156.24 369.95 158.33 360.199 151.365 360.199C142.311 360.315 135.811 382.255 137.784 400.363L127.105 370.531C127.569 366.7 129.078 359.271 134.766 349.984C142.195 337.68 147.883 323.286 138.829 324.098C129.659 324.911 123.042 346.966 125.364 365.307L116.426 340.466C116.658 338.028 117.703 333.385 121.185 327.464C125.828 319.687 129.543 310.633 123.739 311.097C117.935 311.561 113.756 325.607 115.265 337.215L113.408 331.992C111.667 316.089 100.755 298.444 94.0228 299.953C87.2903 301.462 93.9067 311.561 102.613 320.5C106.327 324.33 108.765 328.625 110.39 331.643L113.988 341.859C107.488 333.849 97.8534 328.161 93.7907 331.063C89.0315 334.313 97.5051 339.073 106.095 342.091C110.622 343.716 113.872 345.689 115.961 347.314L127.221 378.888C117.006 364.726 99.8267 353.699 92.746 358.574C85.2009 363.798 98.782 371.227 112.247 376.102C120.953 379.237 126.525 383.067 129.659 385.853L138.48 410.462C128.614 394.908 109.693 382.139 102.032 387.362C94.4871 392.586 108.068 400.015 121.533 404.89C131.632 408.489 137.552 413.132 140.338 415.802L141.499 418.82Z" fill="#00A8FF"/>
<path d="M361.117 359.271L358.215 358.69L364.948 347.198C365.18 342.671 364.948 334.081 361.117 323.75C355.43 308.543 355.197 298.56 362.046 299.837C370.868 301.578 373.306 324.33 368.198 341.858L384.101 314.463C384.333 310.633 384.217 303.087 380.27 292.872C375.163 279.407 372.145 264.2 380.967 266.638C389.905 269.076 392.342 292.06 386.771 309.588L400.003 286.72C400.236 284.282 400.119 279.523 397.682 273.138C394.432 264.665 392.574 255.146 398.146 256.655C403.718 258.164 405.343 272.674 401.745 283.818L404.53 278.943C409.174 263.62 423.103 248.297 429.487 250.967C435.755 253.637 427.514 262.343 417.299 269.656C412.888 272.79 409.754 276.505 407.665 279.175L402.209 288.577C410.102 281.961 420.549 278.014 424.031 281.612C428.094 285.675 418.924 288.809 409.986 290.202C405.227 291.015 401.745 292.292 399.307 293.569L382.476 322.589C395.128 310.517 413.933 302.855 420.085 308.891C426.585 315.392 411.843 320.267 397.682 322.589C388.512 323.982 382.36 326.884 378.761 328.973L365.644 351.493C378.181 338.028 399.191 328.973 405.575 335.358C412.075 341.858 397.334 346.734 383.172 349.055C372.609 350.797 365.993 354.279 362.743 356.369L361.117 359.271Z" fill="#00A8FF"/>
<path d="M231.742 333.55L231.609 425.719L364.982 425.911L365.115 333.743L231.742 333.55Z" fill="#FFAA01"/>
<path d="M365.181 333.849V339.769L298.32 398.739L231.691 339.537L231.807 333.617L298.32 393.051L365.181 333.849Z" fill="#F88800"/>
<path d="M285.55 381.326L235.521 425.785H231.574V423.464L282.648 378.192L285.55 381.326Z" fill="#F88800"/>
<path d="M365.064 423.928V425.901H360.769L310.855 381.442L313.757 378.192L365.064 423.928Z" fill="#F88800"/>
<path d="M231.691 333.617L298.32 393.051L365.181 333.849L231.691 333.617Z" fill="#FDCC50"/>
<path d="M284.274 18.2248C284.158 18.2248 284.042 18.2248 283.926 18.2248C282.533 17.6444 281.836 17.4122 281.72 17.4122C281.256 17.2962 281.14 16.8318 281.256 16.3675C281.372 15.9032 281.836 15.7871 282.3 15.9032C282.3 15.9032 283.113 16.1354 284.622 16.8318C284.97 16.9479 285.202 17.4122 285.086 17.8766C284.738 17.9927 284.506 18.2248 284.274 18.2248Z" fill="#DCEDF9"/>
<path d="M324.553 60.5944C325.133 61.9874 325.598 63.4964 326.062 65.0055C326.178 65.3537 326.526 65.5859 326.875 65.5859H326.991C327.455 65.4698 327.687 65.0055 327.571 64.5412C327.107 63.0321 326.642 61.5231 326.062 60.014C325.946 59.5497 325.482 59.4336 325.017 59.5497C324.553 59.7818 324.321 60.2462 324.553 60.5944Z" fill="#DCEDF9"/>
<path d="M327.222 69.5325C327.571 71.0415 327.919 72.5505 328.151 74.0596C328.267 74.5239 328.615 74.7561 328.963 74.7561C328.963 74.7561 328.963 74.7561 329.08 74.7561C329.544 74.64 329.776 74.2918 329.66 73.8274C329.428 72.3184 329.08 70.6933 328.615 69.1842C328.499 68.7199 328.035 68.4877 327.687 68.6038C327.454 68.6038 327.106 69.0681 327.222 69.5325Z" fill="#DCEDF9"/>
<path d="M330.589 93.3293C330.937 93.3293 331.285 92.981 331.285 92.5167C331.285 90.8916 331.285 89.3825 331.285 87.7574C331.285 87.2931 330.937 86.9448 330.473 86.9448C330.008 86.9448 329.66 87.2931 329.66 87.7574C329.66 89.2664 329.66 90.8916 329.66 92.4006C329.66 92.981 330.008 93.3293 330.589 93.3293C330.589 93.3293 330.473 93.3293 330.589 93.3293Z" fill="#DCEDF9"/>
<path d="M329.66 77.7742C329.196 77.7742 328.964 78.2386 328.964 78.7029C329.08 79.3994 329.196 80.0959 329.196 80.7923C329.312 81.6049 329.312 82.4175 329.428 83.23C329.428 83.6944 329.892 84.0426 330.241 83.9265C330.705 83.9265 330.937 83.4622 330.937 83.114C330.821 82.3014 330.821 81.3727 330.705 80.5602C330.589 79.8637 330.589 79.0511 330.473 78.3546C330.473 78.0064 330.009 77.6582 329.66 77.7742Z" fill="#DCEDF9"/>
<path d="M322.696 56.2994C322.812 56.6476 323.16 56.7637 323.508 56.7637C323.624 56.7637 323.624 56.7637 323.74 56.6476C324.088 56.4155 324.321 55.9511 324.088 55.6029C323.392 54.2099 322.696 52.7009 321.999 51.3079C321.767 50.9597 321.303 50.7275 320.954 50.9597C320.606 51.1918 320.374 51.6561 320.606 52.0044C321.419 53.5134 322.115 54.9064 322.696 56.2994Z" fill="#DCEDF9"/>
<path d="M287.988 20.0821C289.381 20.7786 290.658 21.4751 292.051 22.2877C292.167 22.4037 292.399 22.4037 292.515 22.4037C292.748 22.4037 292.98 22.2877 293.096 22.0555C293.328 21.7073 293.212 21.2429 292.864 21.0108C291.471 20.1982 290.078 19.3856 288.685 18.6892C288.337 18.457 287.872 18.6892 287.64 19.0374C287.524 19.5017 287.64 19.966 287.988 20.0821Z" fill="#DCEDF9"/>
<path d="M299.828 27.6273C299.944 27.7434 300.177 27.8595 300.409 27.7434C300.641 27.7434 300.873 27.6273 300.989 27.3952C301.221 27.0469 301.221 26.5826 300.873 26.2344C299.596 25.3057 298.319 24.3771 297.042 23.4484C296.694 23.2163 296.23 23.3323 295.998 23.6806C295.766 24.0288 295.882 24.4931 296.23 24.7253C297.275 25.77 298.551 26.5826 299.828 27.6273Z" fill="#DCEDF9"/>
<path d="M306.91 33.6637C307.142 33.7798 307.374 33.8959 307.49 33.8959C307.722 33.8959 307.838 33.7798 307.954 33.6637C308.303 33.3155 308.303 32.8511 307.954 32.5029C306.794 31.4582 305.633 30.2974 304.472 29.2526C304.124 29.0205 303.659 29.0205 303.311 29.3687C303.079 29.7169 303.079 30.1813 303.427 30.5295C304.588 31.4582 305.749 32.619 306.91 33.6637Z" fill="#DCEDF9"/>
<path d="M313.061 40.5125C313.294 40.7446 313.526 40.8607 313.758 40.8607C313.874 40.8607 313.99 40.7446 314.222 40.7446C314.57 40.5125 314.57 39.9321 314.338 39.5838C313.41 38.3069 312.365 37.1461 311.204 35.9853C310.856 35.6371 310.392 35.6371 310.043 35.9853C309.695 36.3335 309.695 36.7979 310.043 37.1461C311.088 38.0748 312.133 39.3517 313.061 40.5125Z" fill="#DCEDF9"/>
<path d="M318.4 48.1738C318.516 48.4059 318.865 48.522 319.213 48.522C319.329 48.522 319.445 48.522 319.561 48.4059C319.909 48.1738 320.025 47.7095 319.793 47.3612C318.981 45.9682 318.052 44.6914 317.239 43.4145C317.007 43.0662 316.543 42.9501 316.195 43.1823C315.846 43.4145 315.73 43.8788 315.963 44.227C316.775 45.5039 317.588 46.7808 318.4 48.1738Z" fill="#DCEDF9"/>
<path d="M284.157 12.7689L287.64 0L245.271 0.348243L284.157 12.7689Z" fill="#FDCC50"/>
<path d="M245.271 0.348145L282.184 15.903H282.3L283.809 18.5728L284.157 12.7688L245.271 0.348145Z" fill="#FFAA01"/>
<path d="M283.81 18.5732L280.443 17.9928L282.301 15.9033L283.81 18.5732Z" fill="#F88800"/>
<path d="M277.657 14.0457L282.3 15.903L272.666 26.6985L245.271 0.348145L277.657 14.0457Z" fill="#FDCC50"/>
<path d="M493.678 91.5879C497.045 91.5879 499.831 94.3738 499.831 97.7402C499.831 101.107 497.045 103.892 493.678 103.892C490.312 103.892 487.526 101.107 487.526 97.7402C487.526 94.2577 490.312 91.5879 493.678 91.5879ZM493.678 101.919C496 101.919 497.857 100.062 497.857 97.7402C497.857 95.4186 496 93.5613 493.678 93.5613C491.357 93.5613 489.5 95.4186 489.5 97.7402C489.5 100.062 491.357 101.919 493.678 101.919Z" fill="#00A8FF"/>
<path d="M471.508 69.9971C474.874 69.9971 477.66 72.783 477.66 76.1494C477.66 79.5157 474.874 82.3017 471.508 82.3017C468.141 82.3017 465.355 79.5157 465.355 76.1494C465.355 72.6669 468.141 69.9971 471.508 69.9971ZM471.508 80.3283C473.829 80.3283 475.686 78.471 475.686 76.1494C475.686 73.8277 473.829 71.9704 471.508 71.9704C469.186 71.9704 467.329 73.8277 467.329 76.1494C467.329 78.471 469.186 80.3283 471.508 80.3283Z" fill="#FFAA01"/>
<path d="M463.963 49.915C464.543 49.915 464.891 50.3794 464.891 50.8437V55.1387C464.891 55.7191 464.427 56.0673 463.963 56.0673C463.382 56.0673 463.034 55.603 463.034 55.1387V50.8437C463.034 50.3794 463.382 49.915 463.963 49.915Z" fill="#00A8FF"/>
<path d="M463.963 42.4858C464.543 42.4858 464.891 42.9502 464.891 43.4145V47.7095C464.891 48.2899 464.427 48.6381 463.963 48.6381C463.382 48.6381 463.034 48.1738 463.034 47.7095V43.4145C463.034 42.9502 463.382 42.4858 463.963 42.4858Z" fill="#00A8FF"/>
<path d="M457.927 48.29H461.757C462.338 48.29 462.686 48.7544 462.686 49.2187C462.686 49.683 462.221 50.1473 461.757 50.1473H457.927C457.346 50.1473 456.998 49.683 456.998 49.2187C456.998 48.7544 457.462 48.29 457.927 48.29Z" fill="#00A8FF"/>
<path d="M466.052 48.29H469.882C470.463 48.29 470.811 48.7544 470.811 49.2187C470.811 49.683 470.347 50.1473 469.882 50.1473H466.052C465.471 50.1473 465.123 49.683 465.123 49.2187C465.123 48.7544 465.587 48.29 466.052 48.29Z" fill="#00A8FF"/>
<path d="M497.974 73.8276C498.554 73.8276 498.902 74.292 498.902 74.7563V79.0513C498.902 79.6317 498.438 79.9799 497.974 79.9799C497.393 79.9799 497.045 79.5156 497.045 79.0513V74.7563C496.929 74.1759 497.393 73.8276 497.974 73.8276Z" fill="#FFAA01"/>
<path d="M497.974 66.3984C498.554 66.3984 498.902 66.8628 498.902 67.3271V71.6221C498.902 72.2025 498.438 72.5507 497.974 72.5507C497.393 72.5507 497.045 72.0864 497.045 71.6221V67.3271C496.929 66.7467 497.393 66.3984 497.974 66.3984Z" fill="#FFAA01"/>
<path d="M491.937 72.2026H495.768C496.348 72.2026 496.697 72.667 496.697 73.1313C496.697 73.7117 496.232 74.0599 495.768 74.0599H491.937C491.357 74.0599 491.009 73.5956 491.009 73.1313C491.009 72.667 491.473 72.2026 491.937 72.2026Z" fill="#FFAA01"/>
<path d="M500.062 72.2026H503.893C504.473 72.2026 504.822 72.667 504.822 73.1313C504.822 73.7117 504.357 74.0599 503.893 74.0599H500.062C499.482 74.0599 499.134 73.5956 499.134 73.1313C499.134 72.667 499.598 72.2026 500.062 72.2026Z" fill="#FFAA01"/>
<path d="M79.281 60.2461C82.6473 60.2461 85.4331 63.032 85.4331 66.3984C85.4331 69.7647 82.6473 72.5507 79.281 72.5507C75.9148 72.5507 73.1289 69.7647 73.1289 66.3984C73.1289 63.032 75.9148 60.2461 79.281 60.2461ZM79.281 62.2195C76.9595 62.2195 75.1022 64.0768 75.1022 66.3984C75.1022 68.72 76.9595 70.5773 79.281 70.5773C81.6026 70.5773 83.4598 68.72 83.4598 66.3984C83.4598 64.0768 81.6026 62.2195 79.281 62.2195Z" fill="#00A8FF"/>
<path d="M56.8787 39.9316C60.2449 39.9316 63.0308 42.7176 63.0308 46.0839C63.0308 49.4503 60.2449 52.2362 56.8787 52.2362C53.5124 52.2362 50.7266 49.4503 50.7266 46.0839C50.7266 42.7176 53.3963 39.9316 56.8787 39.9316ZM56.8787 41.905C54.5571 41.905 52.6999 43.7623 52.6999 46.0839C52.6999 48.4056 54.5571 50.2628 56.8787 50.2628C59.2002 50.2628 61.0575 48.4056 61.0575 46.0839C61.0575 43.7623 59.2002 41.905 56.8787 41.905Z" fill="#FFAA01"/>
<path d="M48.7529 75.1044C48.7529 75.6848 49.2172 76.0331 49.6815 76.0331H53.9764C54.5568 76.0331 54.905 75.5687 54.905 75.1044C54.905 74.524 54.4407 74.1758 53.9764 74.1758H49.6815C49.1012 74.1758 48.7529 74.6401 48.7529 75.1044Z" fill="#00A8FF"/>
<path d="M41.208 75.1044C41.208 75.6848 41.6723 76.0331 42.1366 76.0331H46.4315C47.0119 76.0331 47.3601 75.5687 47.3601 75.1044C47.3601 74.524 46.8958 74.1758 46.4315 74.1758H42.1366C41.6723 74.1758 41.208 74.6401 41.208 75.1044Z" fill="#00A8FF"/>
<path d="M47.1279 69.1845V73.0152C47.1279 73.5956 47.5922 73.9438 48.0566 73.9438C48.6369 73.9438 48.9852 73.4795 48.9852 73.0152V69.1845C48.9852 68.6041 48.5209 68.2559 48.0566 68.2559C47.5922 68.2559 47.1279 68.6041 47.1279 69.1845Z" fill="#00A8FF"/>
<path d="M47.1279 77.31V81.1407C47.1279 81.7211 47.5922 82.0693 48.0566 82.0693C48.6369 82.0693 48.9852 81.605 48.9852 81.1407V77.31C48.9852 76.7296 48.5209 76.3813 48.0566 76.3813C47.5922 76.3813 47.1279 76.7296 47.1279 77.31Z" fill="#00A8FF"/>
<path d="M93.791 41.9051C93.791 42.4855 94.2553 42.8337 94.7196 42.8337H99.0145C99.5949 42.8337 99.9431 42.3694 99.9431 41.9051C99.9431 41.3246 99.4788 40.9764 99.0145 40.9764H94.7196C94.2553 40.8603 93.791 41.3246 93.791 41.9051Z" fill="#FFAA01"/>
<path d="M86.3623 41.9051C86.3623 42.4855 86.8266 42.8337 87.2909 42.8337H91.5858C92.1662 42.8337 92.5144 42.3694 92.5144 41.9051C92.5144 41.3246 92.0501 40.9764 91.5858 40.9764H87.2909C86.8266 40.8603 86.3623 41.3246 86.3623 41.9051Z" fill="#FFAA01"/>
<path d="M92.166 35.8691V39.6997C92.166 40.2802 92.6303 40.6284 93.0946 40.6284C93.675 40.6284 94.0233 40.1641 94.0233 39.6997V35.8691C94.0233 35.2887 93.5589 34.9404 93.0946 34.9404C92.6303 34.9404 92.166 35.4048 92.166 35.8691Z" fill="#FFAA01"/>
<path d="M92.166 43.9946V47.8252C92.166 48.4056 92.6303 48.7539 93.0946 48.7539C93.675 48.7539 94.0233 48.2896 94.0233 47.8252V43.9946C94.0233 43.4142 93.5589 43.0659 93.0946 43.0659C92.6303 43.0659 92.166 43.5302 92.166 43.9946Z" fill="#FFAA01"/>
<path d="M50.6101 143.36H33.3146C30.5287 143.36 28.3232 141.155 28.3232 138.369V121.073C28.3232 118.287 30.5287 116.081 33.3146 116.081H50.6101C53.396 116.081 55.6015 118.287 55.6015 121.073V138.369C55.4854 141.155 53.2799 143.36 50.6101 143.36Z" fill="#FFAA01"/>
<path d="M49.5653 124.207C49.5653 123.975 49.4492 123.859 49.4492 123.626C49.3331 122.93 48.9849 122.35 48.5206 121.885C48.1723 121.537 47.8241 121.189 47.3598 120.957C46.7794 120.608 46.0829 120.724 45.7347 121.305C44.9222 122.234 44.2257 123.162 43.5292 124.091C43.0649 124.671 43.181 125.484 43.7614 125.948C44.2257 126.296 44.5739 126.645 45.0382 126.993L45.1543 127.109C44.1096 129.779 42.4845 131.868 40.0469 133.377C39.6987 133.145 39.4665 132.913 39.1183 132.565C39.0022 132.449 38.7701 132.333 38.654 132.216C38.1897 131.868 37.6093 131.752 37.0289 132.1C36.9128 132.216 36.6807 132.333 36.5646 132.565C35.8681 133.377 35.1717 134.19 34.4752 135.002C34.243 135.235 34.127 135.583 34.127 135.931C34.127 136.047 34.127 136.163 34.127 136.279C34.243 136.511 34.3591 136.744 34.4752 136.86C34.8234 137.208 35.2877 137.672 35.8681 137.904C36.4485 138.137 37.145 138.369 37.8414 138.253C38.3057 138.253 38.7701 138.137 39.1183 138.021C40.2791 137.672 41.2077 137.208 42.1363 136.511C43.0649 135.931 43.8775 135.118 44.69 134.306C45.7347 133.261 46.6633 131.984 47.5919 130.707C48.2884 129.663 48.8688 128.618 49.217 127.457C49.4492 126.877 49.5653 126.296 49.5653 125.716C49.5653 125.484 49.5653 125.252 49.5653 125.019C49.6813 124.787 49.6813 124.439 49.5653 124.207Z" fill="white"/>
<path d="M469.418 300.998H449.685C447.479 300.998 445.738 299.257 445.738 297.051V277.317C445.738 275.112 447.479 273.371 449.685 273.371H469.418C471.624 273.371 473.365 275.112 473.365 277.317V297.051C473.365 299.257 471.624 300.998 469.418 300.998Z" fill="#FFAA01"/>
<path d="M468.49 286.72C468.49 290.203 466.516 291.944 464.311 291.944C462.918 291.944 461.989 291.363 461.409 290.319C460.944 291.363 460.016 291.944 458.623 291.944C456.65 291.944 454.792 290.203 454.792 287.417C454.792 284.631 456.65 283.006 458.623 283.006C459.552 283.006 460.364 283.354 460.828 283.934V283.238H464.311V288.345C464.311 289.158 464.659 289.39 465.007 289.39C465.471 289.39 465.936 288.926 465.936 286.836C465.936 283.586 463.498 281.264 459.784 281.264C456.069 281.264 453.632 283.818 453.632 287.301C453.632 290.783 456.069 293.337 459.784 293.337C460.944 293.337 462.221 293.105 463.382 292.524L464.195 294.73C463.15 295.194 461.409 295.542 459.784 295.542C454.328 295.542 450.846 291.944 450.846 287.184C450.846 282.541 454.328 278.827 459.784 278.827C465.007 278.943 468.49 282.425 468.49 286.72ZM460.944 287.417C460.944 286.372 460.364 285.792 459.668 285.792C458.971 285.792 458.391 286.372 458.391 287.417C458.391 288.461 458.971 289.042 459.668 289.042C460.364 289.158 460.944 288.577 460.944 287.417Z" fill="white"/>
<path d="M463.73 123.975V211.964C463.73 220.206 457.114 226.823 448.872 226.823H238.075V76.3818H416.254C429.371 76.3818 441.327 81.7216 449.917 90.3115C458.39 98.9015 463.73 110.858 463.73 123.975Z" fill="#00A8FF"/>
<path d="M463.73 193.391V212.08C463.73 220.322 457.113 226.939 448.872 226.939H272.666V193.391H463.73Z" fill="#28BAFF"/>
<path d="M287.757 118.751V226.823H192.457V118.751C192.457 95.3029 211.494 76.2656 234.941 76.2656H245.504C268.836 76.4978 287.757 95.419 287.757 118.751Z" fill="#007FE9"/>
<path d="M287.756 118.751V226.823H203.02V118.751C203.02 95.419 221.94 76.3817 245.272 76.2656H245.504C268.835 76.4978 287.756 95.419 287.756 118.751Z" fill="#0050DB"/>
<path d="M192.457 226.823L156.124 290.783C142.775 314.232 151.017 333.269 174.465 333.269H185.028C208.475 333.153 238.075 314.116 251.424 290.783L287.756 226.823H192.457V226.823Z" fill="#007FE9"/>
<path d="M287.757 220.67H192.457V226.823H287.757V220.67Z" fill="#007FE9"/>
<path d="M387.351 130.011C395.813 130.011 402.673 123.15 402.673 114.688C402.673 106.225 395.813 99.3652 387.351 99.3652C378.888 99.3652 372.028 106.225 372.028 114.688C372.028 123.15 378.888 130.011 387.351 130.011Z" fill="#007FE9"/>
<path d="M387.351 127.109C395.813 127.109 402.673 120.249 402.673 111.786C402.673 103.324 395.813 96.4634 387.351 96.4634C378.888 96.4634 372.028 103.324 372.028 111.786C372.028 120.249 378.888 127.109 387.351 127.109Z" fill="#2E3052"/>
<path d="M387.35 120.724C382.475 120.724 378.528 116.778 378.528 111.902C378.528 107.027 382.475 103.08 387.35 103.08C392.225 103.08 396.172 107.027 396.172 111.902C396.288 116.662 392.225 120.724 387.35 120.724Z" fill="#524E84"/>
<path d="M389.904 9.51904V111.438C389.904 112.831 388.743 113.992 387.351 113.992C385.958 113.992 384.797 112.831 384.797 111.438V9.51904H389.904Z" fill="#FFAA01"/>
<path d="M426.237 28.5562H384.797V5.45605H426.237L416.834 17.0641L426.237 28.5562Z" fill="#2E3052"/>
<path d="M389.904 28.5562V29.9491L384.797 31.6903V28.5562H389.904Z" fill="#F88800"/>
<path d="M350.787 226.938H330.357V422.071H350.787V226.938Z" fill="#007FE9"/>
<path d="M385.726 426.017H295.418V421.606C295.418 414.757 300.99 409.186 307.838 409.186H373.306C380.155 409.186 385.726 414.757 385.726 421.606V426.017V426.017Z" fill="#00A8FF"/>
<path d="M350.787 226.938V232.162L330.357 239.243V226.938H350.787Z" fill="#0050DB"/>
<path d="M164.366 155.78C171.911 183.292 196.868 190.953 196.868 190.953C206.734 188.864 213.002 185.845 219.27 182.479C217.413 178.068 216.601 173.541 215.556 167.737C206.386 170.291 198.493 171.684 198.493 171.684C179.108 162.745 167.384 119.795 167.384 119.795C155.776 130.707 164.366 155.78 164.366 155.78Z" fill="#007FE9"/>
<path d="M99.2464 376.799L91.0049 387.71C91.0049 387.71 92.5139 392.586 98.5499 396.417L108.3 383.764L99.2464 376.799Z" fill="#FBA691"/>
<path d="M97.273 393.05C97.273 393.05 101.104 392.238 102.38 393.514C103.657 394.791 107.024 412.9 110.042 416.847C113.176 420.793 110.042 422.883 108.068 423.695C106.211 424.508 79.0488 397.345 79.0488 397.345C79.0488 397.345 85.7813 388.059 89.0315 386.317C92.2817 384.46 93.7907 391.193 97.273 393.05Z" fill="#FFAA01"/>
<path d="M97.7375 403.614C97.6214 403.497 97.3892 403.381 97.3892 403.265C97.2732 402.917 97.3892 402.453 97.7375 402.337C97.8535 402.337 100.639 401.06 102.961 401.524C105.979 402.104 106.675 404.658 106.675 404.774C106.792 405.123 106.559 405.587 106.211 405.703C105.863 405.819 105.515 405.587 105.399 405.239C105.399 405.123 104.818 403.381 102.729 403.033C100.872 402.685 98.4339 403.846 98.3178 403.846C98.0857 403.613 97.9696 403.614 97.7375 403.614Z" fill="white"/>
<path d="M97.2726 400.712C97.1565 400.596 96.9244 400.479 96.9244 400.363C96.8083 400.015 96.9244 399.551 97.2726 399.435C97.3887 399.435 100.175 398.158 102.496 398.622C105.514 399.203 106.211 401.756 106.211 401.872C106.327 402.221 106.095 402.685 105.746 402.801C105.398 402.917 105.05 402.685 104.934 402.337C104.934 402.221 104.353 400.479 102.264 400.131C100.407 399.783 97.9691 400.944 97.853 400.944C97.6209 400.712 97.5048 400.712 97.2726 400.712Z" fill="white"/>
<path d="M99.0138 406.632C98.8978 406.515 98.6656 406.399 98.6656 406.283C98.5495 405.935 98.6656 405.471 99.0138 405.355C99.1299 405.355 101.916 404.078 104.237 404.542C107.255 405.122 107.952 407.676 107.952 407.792C108.068 408.141 107.836 408.605 107.488 408.721C107.139 408.837 106.791 408.605 106.675 408.257C106.675 408.141 106.095 406.399 104.005 406.051C102.148 405.703 99.7103 406.864 99.5942 406.864C99.3621 406.632 99.1299 406.632 99.0138 406.632Z" fill="white"/>
<path d="M149.508 395.604L150.785 409.185C150.785 409.185 155.196 411.855 162.16 410.578L160.999 394.675L149.508 395.604Z" fill="#FBA691"/>
<path d="M159.723 408.721C159.723 408.721 162.16 405.355 164.018 405.471C165.991 405.587 181.081 417.311 186.305 418.24C191.412 419.168 190.483 422.883 189.555 424.856C188.626 426.83 148.812 425.669 148.812 425.669C148.812 425.669 147.303 412.784 148.579 409.185C149.856 405.587 155.66 409.65 159.723 408.721Z" fill="#FFAA01"/>
<path d="M169.589 417.428C169.473 417.544 169.241 417.428 169.009 417.428C168.661 417.195 168.545 416.847 168.661 416.499C168.661 416.383 170.054 413.597 172.143 412.552C174.813 411.043 177.018 412.552 177.134 412.668C177.483 412.9 177.599 413.365 177.367 413.713C177.134 414.061 176.67 414.061 176.438 413.945C176.322 413.945 174.813 412.9 172.956 413.945C171.33 414.874 170.054 417.312 170.054 417.312C169.821 417.195 169.705 417.312 169.589 417.428Z" fill="white"/>
<path d="M167.384 415.454C167.268 415.57 167.036 415.454 166.804 415.454C166.456 415.222 166.34 414.874 166.456 414.525C166.456 414.409 167.849 411.623 169.938 410.579C172.608 409.07 174.813 410.579 174.929 410.695C175.278 410.927 175.394 411.391 175.161 411.739C174.929 412.088 174.465 412.088 174.233 411.972C174.117 411.972 172.608 410.927 170.751 411.972C169.125 412.9 167.849 415.338 167.849 415.338C167.616 415.338 167.5 415.454 167.384 415.454Z" fill="white"/>
<path d="M172.492 418.936C172.376 419.052 172.143 418.936 171.911 418.936C171.563 418.704 171.447 418.356 171.563 418.008C171.563 417.892 172.956 415.106 175.045 414.061C177.715 412.552 179.921 414.061 180.037 414.177C180.385 414.409 180.501 414.874 180.269 415.222C180.037 415.57 179.572 415.57 179.34 415.454C179.224 415.454 177.715 414.409 175.858 415.454C174.233 416.383 172.956 418.82 172.956 418.82C172.724 418.82 172.608 418.936 172.492 418.936Z" fill="white"/>
<path d="M141.847 247.717L133.606 316.204C133.606 316.204 126.177 326.303 119.096 339.188C113.176 349.984 97.2734 378.076 97.2734 378.076L106.792 385.389L159.259 331.063L173.188 247.136L141.847 247.717Z" fill="#001030"/>
<path d="M109.229 385.157C108.417 387.362 106.792 388.755 104.934 390.032L93.791 380.63C94.7196 378.656 95.9965 376.915 97.6216 375.522L109.229 385.157Z" fill="#2E3052"/>
<path d="M99.4785 250.503C99.4785 250.503 114.22 286.836 133.489 315.16C133.489 315.16 136.391 342.671 141.266 357.413C143.356 363.798 147.535 394.211 147.535 394.211L162.044 393.514L158.33 308.891L142.892 247.601L99.4785 250.503Z" fill="#2E3052"/>
<path d="M163.437 393.05C164.366 395.604 164.134 398.041 163.437 400.595L146.606 401.059C145.909 398.622 145.677 396.184 145.909 393.746L163.437 393.05Z" fill="#524E84"/>
<path d="M167.384 119.795C169.59 122.581 174.001 150.441 174.697 178.765C174.697 179.461 174.697 180.042 174.697 180.738C174.813 183.756 174.813 186.774 174.929 189.792C175.045 192.81 175.045 195.712 175.045 198.731C175.162 203.606 175.162 208.249 175.278 212.892C175.278 213.357 175.278 213.937 175.278 214.401C175.278 218.813 175.394 223.108 175.394 227.17C175.394 227.751 175.394 228.215 175.394 228.679C175.394 234.716 175.51 239.939 175.51 244.234C175.51 244.815 175.51 245.395 175.51 245.975C175.51 248.994 175.51 251.315 175.51 252.94C168.429 254.798 161.464 256.191 154.384 257.003C154.151 257.003 154.035 257.003 153.803 257.119C153.455 257.119 153.223 257.235 152.875 257.235C152.759 257.235 152.759 257.235 152.642 257.235C151.366 257.351 150.205 257.468 148.928 257.584C142.892 258.048 136.856 258.164 130.704 257.932C130.123 257.932 129.659 257.932 129.079 257.816C128.614 257.816 128.15 257.816 127.686 257.7C127.454 257.7 127.221 257.7 126.989 257.7C126.641 257.7 126.177 257.584 125.829 257.584C116.891 256.887 108.069 255.262 99.1307 252.94C99.1307 249.458 99.0146 242.261 99.0146 233.091C99.0146 232.626 99.0146 232.046 99.0146 231.581C99.0146 221.366 99.0146 208.946 99.1307 196.061C99.1307 195.016 99.1307 194.087 99.1307 193.043C99.1307 191.882 99.1307 190.721 99.1307 189.444C99.1307 189.212 99.1307 189.096 99.1307 188.864C99.1307 188.632 99.1307 188.283 99.1307 188.051C99.1307 187.471 99.1307 186.89 99.1307 186.426C99.1307 185.613 99.1307 184.801 99.1307 183.988C99.1307 183.408 99.1307 182.711 99.1307 182.131C99.1307 180.854 99.1307 179.693 99.1307 178.416C99.595 152.879 100.408 129.43 102.033 123.51C102.149 122.93 102.381 122.581 102.497 122.349C102.729 122.117 102.845 121.769 103.077 121.537C103.426 121.188 103.774 120.84 104.122 120.492C106.908 117.938 111.551 115.036 116.426 112.25C117.007 111.902 117.587 111.554 118.051 111.322C118.167 111.322 131.052 106.911 131.168 106.794L144.749 107.723C145.097 107.607 164.134 115.733 167.384 119.795Z" fill="#00A8FF"/>
<path d="M112.596 156.477C112.596 155.78 111.784 155.548 111.319 156.013C105.864 163.21 102.613 170.987 100.64 177.255C100.176 178.881 99.7115 180.39 99.3633 181.899C99.3633 182.479 99.3633 183.176 99.3633 183.756C99.3633 184.568 99.3633 185.381 99.3633 186.194C99.3633 186.774 99.3633 187.354 99.3633 187.819C99.3633 188.051 99.3633 188.399 99.3633 188.631C99.3633 188.863 99.3633 188.98 99.3633 189.212C99.8276 186.078 100.756 182.015 102.149 177.604C104.006 171.567 107.257 163.906 112.596 156.825C112.596 156.825 112.596 156.709 112.596 156.477Z" fill="#007FE9"/>
<path d="M115.382 230.536C130.008 230.42 142.544 223.804 150.437 218.232C159.027 212.196 164.134 206.043 164.251 206.043C164.483 205.695 164.483 205.347 164.134 204.999C163.786 204.767 163.438 204.767 163.09 205.115C163.09 205.231 157.982 211.151 149.509 217.071C141.731 222.527 129.543 229.027 115.266 229.144C114.918 229.144 114.569 229.492 114.569 229.84C114.685 230.188 114.918 230.536 115.382 230.536Z" fill="#007FE9"/>
<path d="M130.587 235.528C143.356 235.528 156.008 228.331 156.589 227.983C156.937 227.751 157.053 227.402 156.821 227.054C156.589 226.706 156.241 226.59 155.892 226.822C155.776 226.938 140.802 235.412 127.569 234.019C127.221 234.019 126.873 234.251 126.757 234.599C126.757 234.948 126.989 235.296 127.337 235.412C128.498 235.528 129.543 235.528 130.587 235.528Z" fill="#007FE9"/>
<path d="M126.989 129.894C139.293 126.528 149.508 116.081 149.972 115.616C150.204 115.384 150.204 114.92 149.972 114.572C149.74 114.339 149.276 114.339 148.928 114.572C148.812 114.688 136.739 126.876 123.623 129.082C123.274 129.198 122.926 129.546 123.042 129.894C123.158 130.243 123.507 130.591 123.855 130.475C124.9 130.359 125.944 130.126 126.989 129.894Z" fill="#007FE9"/>
<path d="M116.773 72.6667C116.773 85.0873 124.435 93.5612 136.739 93.5612C149.043 93.5612 157.749 84.3909 157.749 71.9702C157.749 59.5495 150.436 50.147 138.016 50.147C123.158 50.2631 116.773 60.246 116.773 72.6667Z" fill="#2E3052"/>
<path d="M117.006 75.917C117.006 75.917 112.711 69.4164 114.917 64.3089C117.239 59.0852 116.078 60.246 116.658 56.2993C117.239 52.3525 120.14 50.7274 123.507 50.147C126.873 49.5666 124.551 45.6198 129.311 44.2269C134.07 42.8339 137.9 47.7093 140.918 45.5037C143.936 43.2982 151.481 42.1374 153.571 45.5037C155.66 48.8701 157.517 48.754 159.839 48.6379C162.509 48.5219 166.107 52.8168 163.67 56.6475C161.232 60.5943 157.169 58.9691 157.633 61.7551C158.214 64.4249 161.696 69.1843 157.053 75.2205C155.776 77.3099 117.006 75.917 117.006 75.917Z" fill="#2E3052"/>
<path d="M119.56 78.0065C119.56 78.0065 116.077 73.3632 113.524 77.1939C110.97 81.0246 114.568 92.1683 120.836 89.4985L119.56 78.0065Z" fill="#FB876B"/>
<path d="M119.444 86.016C119.211 86.016 118.979 85.9 118.979 85.6678C118.051 82.1854 114.452 80.7924 114.336 80.7924C114.104 80.6763 113.872 80.3281 113.988 80.0959C114.104 79.8638 114.452 79.6316 114.684 79.7477C114.8 79.8638 118.747 81.3728 119.908 85.3196C120.024 85.5517 119.792 85.9 119.56 86.016C119.56 86.016 119.56 86.016 119.444 86.016Z" fill="#D45C48"/>
<path d="M115.845 84.2747C115.729 84.2747 115.613 84.2747 115.613 84.1587C115.381 84.0426 115.265 83.6943 115.497 83.4622C115.497 83.4622 116.193 82.4174 117.47 81.837C117.702 81.721 118.05 81.837 118.166 82.0692C118.283 82.3014 118.166 82.6496 117.934 82.7657C116.89 83.23 116.425 83.9265 116.425 83.9265C116.193 84.1587 115.961 84.2747 115.845 84.2747Z" fill="#D45C48"/>
<path d="M154.963 78.0065C154.963 78.0065 158.446 73.3632 160.999 77.1939C163.553 81.0246 159.955 92.1683 153.687 89.4985L154.963 78.0065Z" fill="#FB876B"/>
<path d="M154.964 86.016C155.196 86.016 155.428 85.9 155.428 85.6678C156.357 82.1854 159.955 80.7924 160.071 80.7924C160.303 80.6763 160.536 80.3281 160.42 80.0959C160.303 79.8638 159.955 79.6316 159.723 79.7477C159.607 79.8638 155.66 81.3728 154.5 85.3196C154.384 85.5517 154.616 85.9 154.848 86.016C154.964 86.016 154.964 86.016 154.964 86.016Z" fill="#D45C48"/>
<path d="M158.678 84.2747C158.794 84.2747 158.91 84.2747 158.91 84.1587C159.142 84.0426 159.258 83.6943 159.026 83.4622C159.026 83.4622 158.329 82.4174 157.053 81.837C156.82 81.721 156.472 81.837 156.356 82.0692C156.24 82.3014 156.356 82.6496 156.588 82.7657C157.633 83.23 158.097 83.9265 158.097 83.9265C158.329 84.1587 158.445 84.2747 158.678 84.2747Z" fill="#D45C48"/>
<path d="M145.677 99.0171V110.857C145.677 110.857 143.82 113.643 140.106 113.992C134.882 114.572 129.311 109.116 129.311 109.116V99.8297L145.677 99.0171Z" fill="#FBA691"/>
<path d="M145.677 99.0171V104.009C142.659 107.375 137.319 108.187 129.426 107.027V99.8297L145.677 99.0171Z" fill="#FB876B"/>
<path d="M117.703 77.7741C117.703 78.4706 117.819 79.051 117.819 79.7475C117.935 81.3726 118.167 83.1138 118.515 84.855C118.515 84.9711 118.515 84.9711 118.515 84.9711C120.024 93.2129 123.39 101.222 130.587 103.892C147.07 109.812 152.874 95.6506 155.196 87.4088C155.428 86.4802 155.66 85.4354 155.892 84.3907V84.2746C156.124 83.1138 156.356 81.7209 156.472 80.444C156.589 79.3992 156.705 78.4706 156.821 77.4259C157.053 74.9882 157.169 72.5505 157.285 70.3449C157.517 65.3534 154.499 60.7102 149.856 58.969C143.124 56.4152 132.909 54.3258 123.158 59.7816C119.56 61.7549 117.354 65.5856 117.238 69.6484C117.47 71.9701 117.47 74.756 117.703 77.7741Z" fill="#FBA691"/>
<path d="M117.702 77.7745C117.702 78.471 117.818 79.0514 117.818 79.7479C117.934 81.373 118.166 83.1142 118.515 84.8554C118.515 84.9715 118.515 84.9715 118.515 84.9715C120.024 93.2133 123.39 101.223 130.587 103.893C147.07 109.813 152.874 95.651 155.195 87.4092C155.427 86.4806 155.659 85.4359 155.892 84.3911V84.275C156.124 83.1142 156.356 81.7213 156.472 80.4444C156.588 79.3997 156.704 78.471 156.82 77.4263L154.383 78.1228C153.686 81.8374 152.641 87.2932 151.249 89.7309C149.043 84.5072 137.087 88.8022 137.087 88.8022C137.087 88.8022 126.408 84.9715 122.81 88.8022C121.068 84.3911 119.559 78.1228 119.559 78.1228L117.702 77.7745ZM136.855 90.7756C145.445 89.6148 147.65 91.8203 147.998 94.3741C145.677 96.8118 143.007 98.2048 140.685 98.7852C137.784 99.4816 131.748 99.3656 127.337 95.9992C126.988 93.9098 126.408 88.1057 136.855 90.7756Z" fill="#2E3052"/>
<path d="M131.632 78.7031C131.632 79.8639 131.051 80.9086 130.239 80.9086C129.426 80.9086 128.846 79.98 128.846 78.7031C128.846 77.5423 129.426 76.4976 130.239 76.4976C131.051 76.4976 131.632 77.4262 131.632 78.7031Z" fill="#2E3052"/>
<path d="M147.534 78.7031C147.534 79.8639 146.954 80.9086 146.141 80.9086C145.328 80.9086 144.748 79.98 144.748 78.7031C144.748 77.5423 145.328 76.4976 146.141 76.4976C146.954 76.4976 147.534 77.4262 147.534 78.7031Z" fill="#2E3052"/>
<path d="M150.088 71.2738C150.088 71.2738 145.793 69.5326 142.427 71.0416L142.775 72.8989C142.775 72.8989 147.65 72.4346 150.088 73.4793C150.32 72.6668 150.32 71.9703 150.088 71.2738Z" fill="#2E3052"/>
<path d="M124.899 71.2738C124.899 71.2738 129.194 69.5326 132.561 71.0416L132.212 72.8989C132.212 72.8989 127.337 72.4346 124.899 73.4793C124.667 72.6668 124.551 71.9703 124.899 71.2738Z" fill="#2E3052"/>
<path d="M137.784 87.9893C136.855 88.1054 135.927 87.8732 135.811 87.8732C135.579 87.7572 135.346 87.525 135.463 87.1768C135.579 86.9446 135.811 86.7124 136.159 86.8285C136.623 86.9446 137.784 87.1768 138.248 86.7124C138.364 86.5963 138.481 86.4803 138.481 86.2481C138.481 84.3908 137.204 78.3546 137.204 78.2385C137.088 78.0064 137.32 77.6581 137.668 77.6581C137.9 77.542 138.248 77.7742 138.248 78.1225C138.248 78.3546 139.525 84.3908 139.525 86.3642C139.525 87.0607 139.177 87.525 138.945 87.7572C138.597 87.8732 138.132 87.9893 137.784 87.9893Z" fill="#FB876B"/>
<path d="M130.587 91.1235C131.051 93.3291 132.444 97.2758 137.319 97.2758C142.195 97.2758 143.588 93.5612 144.052 91.1235H130.587Z" fill="white"/>
<path d="M156.936 78.1226H154.499C154.731 75.6849 153.918 72.7828 153.222 70.8095C151.597 66.3984 155.079 64.425 152.293 62.2195C149.507 60.0139 142.427 60.9426 137.551 60.8265C132.676 60.7104 124.783 60.7104 122.809 61.1748C120.836 61.6391 121.997 64.7733 122.693 67.327C123.39 69.7647 120.372 72.5507 119.791 75.1045C119.675 75.8009 119.675 76.9618 119.791 78.1226H117.818C117.586 74.9884 117.586 72.0864 117.586 69.7647C117.702 65.7019 119.907 61.8712 123.506 59.8979C133.256 54.4421 143.471 56.4154 150.204 59.0853C154.847 60.8265 157.865 65.4697 157.633 70.4612C157.401 72.7828 157.168 75.4527 156.936 78.1226Z" fill="#2E3052"/>
<path d="M182.52 88.2263L96.7617 192.044L168.448 251.264L254.206 147.446L182.52 88.2263Z" fill="#FFAA01"/>
<path d="M182.475 88.3379L187.118 92.0525L190.252 182.015L101.337 195.829L96.8096 192.114L185.725 178.301L182.475 88.3379Z" fill="#F88800"/>
<path d="M168.429 180.854L170.982 248.297L168.429 251.315L166.571 249.806L164.134 180.97L168.429 180.854Z" fill="#F88800"/>
<path d="M252.584 146.262L254.209 147.539L251.424 150.789L184.795 161.12L184.099 156.825L252.584 146.262Z" fill="#F88800"/>
<path d="M96.8096 192.114L185.725 178.301L182.475 88.3379L96.8096 192.114Z" fill="#FDCC50"/>
<path d="M167.267 218.232H169.705C171.91 218.232 173.651 216.955 174.58 214.982C175.044 214.053 175.625 212.544 175.973 211.964C177.134 210.455 180.268 207.785 181.429 207.785C182.589 207.669 182.357 209.874 181.545 210.919C180.732 211.848 179.339 213.124 178.643 214.517C177.946 215.91 184.447 218.696 187.116 219.277C189.786 219.973 194.429 218.464 194.778 220.67C195.242 222.875 191.76 223.223 191.76 223.223C191.76 223.223 192.804 225.197 189.902 226.822C189.902 226.822 190.367 228.795 188.509 229.724C188.509 229.724 188.742 232.162 186.536 232.858C184.331 233.555 177.598 235.412 164.365 227.402L167.267 218.232Z" fill="#FBA691"/>
<path d="M121.765 162.049C126.756 180.97 131.632 189.328 131.632 189.328C131.632 189.328 137.203 197.918 148.811 206.044C156.82 211.616 169.705 218.348 169.705 218.348C167.499 221.25 165.874 226.938 166.803 228.679C140.105 228.679 116.658 203.374 116.658 203.374C97.969 170.871 96.6922 144.289 97.0404 134.654C97.1565 131.288 98.0851 127.921 100.058 125.135C100.987 123.626 102.264 122.349 103.657 121.653C103.657 121.653 111.666 124.671 114.452 134.073C117.238 143.244 121.765 162.049 121.765 162.049Z" fill="#007FE9"/>
<path d="M240.861 163.674C240.861 163.674 234.941 161.585 232.155 162.746C229.37 163.906 237.031 167.969 237.031 167.969C237.031 167.969 227.861 163.094 226.235 165.067C224.61 167.041 233.432 172.032 233.432 172.032C233.432 172.032 226.7 169.71 225.307 171.103C223.914 172.496 230.182 176.443 230.182 176.443C230.182 176.443 224.61 175.166 223.566 176.095C222.405 177.024 227.28 180.97 230.414 182.015C233.548 183.06 234.013 178.649 234.013 178.649C234.013 178.649 236.915 176.095 236.566 174.238C236.566 174.238 239.584 172.148 239.817 170.059C239.817 170.059 244.111 166.344 240.861 163.674Z" fill="#FBA691"/>
</g>
<defs>
<clipPath id="clip0_204_1600">
<rect width="509" height="436" fill="white"/>
</clipPath>
</defs>
</svg>
