<svg width="30" height="30" viewBox="0 0 30 30" fill="none" xmlns="http://www.w3.org/2000/svg">
<g clip-path="url(#clip0_142_1390)">
<path d="M14.6301 0C6.5629 0 0 6.70254 0 14.9414C0 23.1803 6.5629 30 14.6301 30C22.6974 30 29.375 23.1803 29.375 14.9414C29.375 6.70254 22.6974 0 14.6301 0ZM20.769 19.3359C19.6059 19.3359 18.5801 18.7406 17.9568 17.8362C17.1677 18.7483 16.0274 19.3359 14.7449 19.3359C12.3723 19.3359 10.4419 17.3644 10.4419 14.9414C10.4419 12.5184 12.3723 10.5469 14.7449 10.5469C15.7172 10.5469 16.6053 10.8905 17.3267 11.4482V11.4258C17.3267 10.94 17.7116 10.5469 18.1873 10.5469C18.6629 10.5469 19.0479 10.94 19.0479 11.4258C19.0479 13.3805 19.0479 13.8647 19.0479 15.8203C19.0479 16.7893 19.8202 17.5781 20.769 17.5781C21.7179 17.5781 22.4902 16.7893 22.4902 15.8203C22.4902 9.93803 18.6788 7.03125 14.7449 7.03125C10.4739 7.03125 6.99951 10.5795 6.99951 14.9414C6.99951 19.3033 10.4739 22.8516 14.7449 22.8516C16.4661 22.8516 18.094 22.2885 19.453 21.2225C20.3607 20.5148 21.4002 21.9118 20.5018 22.6164C18.8386 23.9201 16.8485 24.6094 14.7449 24.6094C9.52502 24.6094 5.27832 20.2723 5.27832 14.9414C5.27832 9.61049 9.52502 5.27344 14.7449 5.27344C19.5009 5.27344 24.2114 8.85557 24.2114 15.8203C24.2114 17.7592 22.6676 19.3359 20.769 19.3359Z" fill="#004868"/>
<path d="M14.7449 12.3525C13.3212 12.3525 12.1631 13.5353 12.1631 14.9893C12.1631 16.4432 13.3212 17.626 14.7449 17.626C16.1685 17.626 17.3267 16.4432 17.3267 14.9893C17.3267 13.5353 16.1685 12.3525 14.7449 12.3525Z" fill="#004868"/>
</g>
<defs>
<clipPath id="clip0_142_1390">
<rect width="29.375" height="30" fill="white"/>
</clipPath>
</defs>
</svg>
