<svg xmlns="http://www.w3.org/2000/svg" viewBox="0 0 1968.3 1382.61"><defs><style>.cls-1{fill:#fff;}.cls-2,.cls-5{fill:#d37622;}.cls-3{fill:#f93;}.cls-4{fill:#004868;}.cls-5{font-size:120.29px;font-family:Consolas-Bold, Consolas;font-weight:700;}.cls-6{fill:#006299;}</style></defs><title>Asset 1</title><g id="Layer_2" data-name="Layer 2"><g id="Logo3"><polygon class="cls-1" points="105.66 884.89 105.66 928.18 10.13 928.18 10.13 906.21 105.66 884.89"/><polygon class="cls-2" points="105.66 884.89 105.66 928.18 10.13 928.18 10.13 906.21 105.66 884.89"/><path class="cls-3" d="M335.26,603.84Q327.63,578.2,312.35,560a102.66,102.66,0,0,0-38-28.19q-22.71-10-53.24-10A156.7,156.7,0,0,0,184,525.94a130.55,130.55,0,0,0-31.32,11.94,133.08,133.08,0,0,0-27,19.38,277.67,277.67,0,0,0-24.67,26l4.7-72V375H10.14V906.21l95.52-21.32V676.46q24.65-33.66,46.78-53.24t46.39-19.57q48.54,0,48.55,65.37V853.27L342.89,832V661.2Q342.89,629.49,335.26,603.84Z"/><path class="cls-3" d="M680.33,397.34a62.43,62.43,0,0,0-13.1-20A61.21,61.21,0,0,0,622.79,359a63,63,0,0,0-24.85,4.89,60.83,60.83,0,0,0-20,13.51,64.27,64.27,0,0,0-13.12,68.51A60,60,0,0,0,578,465.65a62.05,62.05,0,0,0,20,13.31,62.86,62.86,0,0,0,24.85,4.9,61.53,61.53,0,0,0,24.67-4.9,62.94,62.94,0,0,0,19.77-13.31,60,60,0,0,0,13.1-19.76,64.91,64.91,0,0,0,0-48.55ZM467,530.44v74.38H579.33V779.19l97.88-21.85V530.44Z"/><path class="cls-3" d="M1167.73,530.44l-46.64,127.85,108.5-24.21,40.7-103.64Zm-321.4,0,68.93,173.78,93.56-20.88-56-152.9Z"/><path class="cls-3" d="M1580,535q-32.51-13.12-74.77-13.12-42.67,0-77.33,15.46a165,165,0,0,0-58.91,43.85,182.82,182.82,0,0,0-18.52,26l257.76-57.52A162,162,0,0,0,1580,535Z"/><path class="cls-4" d="M1486.12,173.38,1003.93,451.77v71.37l58,136.61q26-72,52-144.07h0v-.41l372.19-214.88L1858.3,515.27V945l-372.18,214.88L1168.74,976.68H1003.93v31.87l482.19,278.39,482.18-278.39V451.77Z"/><text class="cls-5" transform="translate(0 1076.03)">coding_society;</text><path class="cls-6" d="M1200.41,338.18l110.1-63.45L834.66,0,236,345.65V458.3a190.47,190.47,0,0,1,48,12.38c26.1,10.65,46.39,27,62.05,44.68V409.16L834.66,127Z"/><polygon class="cls-2" points="342.88 831.95 342.88 928.18 247.38 928.18 247.38 853.27 342.88 831.95"/><polygon class="cls-2" points="791.9 853.8 791.9 928.18 453.29 928.18 453.29 853.8 579.34 853.8 579.34 779.19 677.21 757.34 677.21 853.8 791.9 853.8"/><polygon class="cls-2" points="1229.59 634.08 1114.1 928.18 1004.09 928.18 915.25 704.22 1008.82 683.34 1035.4 755.93 1060.07 828.74 1084.34 759.06 1121.1 658.29 1229.59 634.08"/><path class="cls-2" d="M1667.64,627.53q-11.37-32.49-33.29-56a141.46,141.46,0,0,0-26.17-22l-257.76,57.52h0a219.55,219.55,0,0,0-19.06,42.15q-13.29,39.74-13.3,88.27,0,48.94,13.3,86.13t38.38,62.44q25.05,25.24,61.07,38.16t81.42,12.92q18,0,37.19-1.37t38-4.11q18.78-2.75,36.79-6.26t33.28-7.83v-76a489.77,489.77,0,0,1-68.7,14.68,460.27,460.27,0,0,1-62,4.51q-25.07,0-45.62-7.05a98.65,98.65,0,0,1-35.23-20.55,90.77,90.77,0,0,1-22.7-33.47q-8-20-8-46.2h261.5q1.17-13.7,1.76-29.36t.59-25.44Q1679,660,1667.64,627.53ZM1416.7,685.07q4.3-43.83,27.4-67.92t59.12-24.07a85.18,85.18,0,0,1,30.73,5.48,67.69,67.69,0,0,1,25,16.83q10.77,11.37,17,28.78t5.87,40.9Z"/><path class="cls-6" d="M1243.52,1146.56l-408.85,236L425,1146.18H645l189.63,109.41,298.71-172.46Z"/></g></g></svg>