<svg width="30" height="31" viewBox="0 0 30 31" fill="none" xmlns="http://www.w3.org/2000/svg">
<path d="M29.918 8.96269C29.8478 7.36867 29.59 6.27279 29.2207 5.3232C28.8398 4.31524 28.2537 3.4128 27.4859 2.66261C26.7357 1.90074 25.8273 1.30873 24.8311 0.933751C23.876 0.564491 22.7858 0.306719 21.1918 0.236438C19.5859 0.160206 19.076 0.142578 15.003 0.142578C10.9299 0.142578 10.4201 0.160206 8.82011 0.230486C7.22609 0.300767 6.13021 0.558768 5.18085 0.927799C4.17266 1.30873 3.27023 1.89479 2.52003 2.66261C1.75816 3.4128 1.16638 4.32119 0.791173 5.31748C0.421913 6.27279 0.164141 7.36271 0.0938601 8.95674C0.0176274 10.5627 0 11.0725 0 15.1456C0 19.2186 0.0176274 19.7284 0.0879081 21.3284C0.158189 22.9224 0.41619 24.0183 0.785449 24.9679C1.16638 25.9759 1.75816 26.8783 2.52003 27.6285C3.27023 28.3904 4.17861 28.9824 5.1749 29.3574C6.13021 29.7266 7.22014 29.9844 8.81439 30.0547C10.4141 30.1252 10.9242 30.1426 14.9973 30.1426C19.0703 30.1426 19.5801 30.1252 21.1801 30.0547C22.7741 29.9844 23.87 29.7266 24.8194 29.3574C26.8355 28.5779 28.4296 26.9838 29.2091 24.9679C29.5781 24.0126 29.8361 22.9224 29.9064 21.3284C29.9766 19.7284 29.9943 19.2186 29.9943 15.1456C29.9943 11.0725 29.9883 10.5627 29.918 8.96269ZM27.2165 21.2112C27.1519 22.6763 26.9058 23.4675 26.7007 23.995C26.1966 25.3019 25.1593 26.3392 23.8524 26.8433C23.3249 27.0484 22.528 27.2945 21.0686 27.3588C19.4863 27.4293 19.0117 27.4467 15.0089 27.4467C11.0061 27.4467 10.5256 27.4293 8.94899 27.3588C7.48386 27.2945 6.69269 27.0484 6.16524 26.8433C5.51486 26.6029 4.92285 26.222 4.44233 25.7238C3.94419 25.2374 3.56325 24.6513 3.32288 24.0009C3.11776 23.4735 2.87166 22.6763 2.80733 21.2172C2.73683 19.6348 2.71943 19.16 2.71943 15.1572C2.71943 11.1544 2.73683 10.6739 2.80733 9.09753C2.87166 7.63239 3.11776 6.84122 3.32288 6.31377C3.56325 5.66316 3.94419 5.07138 4.44829 4.59063C4.93453 4.09249 5.52058 3.71155 6.17119 3.47141C6.69864 3.26629 7.49576 3.02019 8.95495 2.95564C10.5373 2.88536 11.0121 2.86773 15.0147 2.86773C19.0234 2.86773 19.498 2.88536 21.0746 2.95564C22.5397 3.02019 23.3309 3.26629 23.8583 3.47141C24.5087 3.71155 25.1007 4.09249 25.5812 4.59063C26.0794 5.07711 26.4603 5.66316 26.7007 6.31377C26.9058 6.84122 27.1519 7.63811 27.2165 9.09753C27.2868 10.6799 27.3044 11.1544 27.3044 15.1572C27.3044 19.16 27.2868 19.6289 27.2165 21.2112Z" fill="#004868"/>
<path d="M15.003 7.43848C10.7484 7.43848 7.29639 10.8902 7.29639 15.1451C7.29639 19.3999 10.7484 22.8517 15.003 22.8517C19.2578 22.8517 22.7096 19.3999 22.7096 15.1451C22.7096 10.8902 19.2578 7.43848 15.003 7.43848ZM15.003 20.1442C12.2428 20.1442 10.0039 17.9055 10.0039 15.1451C10.0039 12.3847 12.2428 10.146 15.003 10.146C17.7634 10.146 20.0021 12.3847 20.0021 15.1451C20.0021 17.9055 17.7634 20.1442 15.003 20.1442V20.1442Z" fill="#004868"/>
<path d="M24.8134 7.1341C24.8134 8.12764 24.0078 8.93324 23.014 8.93324C22.0204 8.93324 21.2148 8.12764 21.2148 7.1341C21.2148 6.14033 22.0204 5.33496 23.014 5.33496C24.0078 5.33496 24.8134 6.14033 24.8134 7.1341V7.1341Z" fill="#004868"/>
</svg>
