<svg width="79" height="78" viewBox="0 0 79 78" fill="none" xmlns="http://www.w3.org/2000/svg">
<path d="M40.7007 11.2323C40.7797 10.9983 40.8429 10.7487 40.9851 10.5303C41.6803 12.3711 42.2965 14.2431 43.0075 16.0839C44.0819 16.0995 45.1721 16.1619 46.2465 16.1775C47.2103 16.2243 48.1741 16.2399 49.1537 16.3179C48.7429 16.6767 48.3005 16.9887 47.8739 17.3163C46.8627 18.0963 45.8199 18.8607 44.8087 19.6563C44.6981 19.7499 44.5559 19.8279 44.4769 19.9527C44.4927 20.1867 44.5559 20.4207 44.6191 20.6391C44.6823 20.8419 44.7455 21.0603 44.7929 21.2631C45.2511 22.8855 45.7251 24.4923 46.1675 26.1147C45.2985 25.5063 44.4295 24.9135 43.5447 24.3051C42.6441 23.6811 41.7593 23.0259 40.8429 22.4175C40.5585 22.5735 40.3057 22.7763 40.0529 22.9635C38.6151 24.0087 37.2089 25.0851 35.7553 26.1147C36.3399 24.1023 37.0193 22.1211 37.6039 20.1087C37.6513 19.9527 37.4775 19.8591 37.3827 19.7811C36.6243 19.2039 35.8817 18.6423 35.1233 18.0651C34.5703 17.6439 34.0173 17.2071 33.4485 16.7859C33.2431 16.6299 33.0219 16.4895 32.8955 16.2711C33.2905 16.2399 33.6697 16.2555 34.0647 16.2555C35.3919 16.2555 36.7191 16.2555 38.0463 16.2555C38.3465 16.2555 38.6467 16.2555 38.9469 16.2555C39.1207 15.9435 39.2155 15.5847 39.3261 15.2571C39.7843 13.9155 40.2425 12.5739 40.7007 11.2323ZM40.7797 14.5239C40.7481 14.6955 40.7007 14.8827 40.7481 15.0699C40.7797 15.1635 40.8429 15.2259 40.9219 15.2727C41.0799 15.0699 41.0167 14.7891 40.9851 14.5551C40.9061 14.5395 40.8429 14.5395 40.7797 14.5239ZM41.1747 15.8343C41.0957 15.7563 41.0009 15.6783 40.9219 15.6003C40.8587 15.6939 40.7797 15.7875 40.6849 15.8655C40.6533 15.6783 40.6533 15.4755 40.5585 15.2883C40.5111 15.2883 40.4795 15.3039 40.4321 15.3039C40.3847 15.5067 40.3373 15.7095 40.3689 15.9123C40.4005 16.0371 40.4637 16.1619 40.5743 16.2243C40.7165 16.2087 40.7955 16.0995 40.8903 16.0215C41.0009 16.0839 41.1273 16.2243 41.2537 16.1619C41.5381 15.9123 41.4907 15.3975 41.1747 15.2103C41.1747 15.4131 41.1905 15.6159 41.1747 15.8343ZM39.6421 15.5691C39.5315 15.7719 39.5631 16.0215 39.6895 16.2087C39.7211 16.2399 39.7369 16.3023 39.8001 16.3023C39.9423 16.3023 40.0213 16.1619 40.0529 16.0527C40.1003 15.8343 40.0687 15.6003 39.9739 15.3975C39.8317 15.3975 39.7053 15.4599 39.6421 15.5691ZM41.7119 15.9123C41.6803 16.1463 41.6961 16.3647 41.7435 16.5987C41.8541 16.6299 42.0121 16.5987 42.0753 16.7235C42.1859 16.9263 42.2649 17.1603 42.2649 17.4099C42.2649 17.5035 42.2175 17.5971 42.1385 17.6595C42.0753 17.7063 41.9963 17.6439 41.9489 17.6283C41.6487 17.4879 41.4907 17.1915 41.2695 16.9575C41.1747 17.2227 41.1273 17.5191 40.9377 17.7531C40.8429 17.8779 40.7007 17.9403 40.5427 17.9715C40.4005 17.7687 40.3847 17.5191 40.3689 17.2851C40.3689 17.0199 40.3531 16.7391 40.2425 16.5051C40.2109 16.4271 40.1161 16.3647 40.0371 16.4115C39.8949 16.5363 39.8001 16.7079 39.6895 16.8639C39.5315 17.1135 39.3735 17.3943 39.0891 17.5191C39.0101 17.4255 38.9311 17.3163 38.8521 17.2227C38.8205 17.4723 38.8205 17.7219 38.9153 17.9559C39.1997 17.8935 39.4209 17.7219 39.5947 17.4879C39.7369 17.3163 39.8633 17.0979 40.0687 17.0043C40.1003 17.3163 40.1003 17.6283 40.1793 17.9247C40.2267 18.1119 40.3057 18.3147 40.4637 18.4395C40.5427 18.5175 40.6691 18.5175 40.7797 18.4863C41.0641 18.3927 41.2221 18.1431 41.3959 17.9247C41.5381 18.0339 41.6645 18.1587 41.8383 18.2367C42.0279 18.3147 42.2491 18.2835 42.4071 18.1743C42.5967 18.0339 42.7073 17.7999 42.7073 17.5659C42.7231 17.1603 42.5019 16.7859 42.3597 16.4115C42.2965 16.2399 42.2175 16.0683 42.0595 15.9747C41.9489 15.8811 41.8225 15.8811 41.7119 15.9123ZM42.8179 17.4723C42.8653 17.7999 43.1023 18.0807 43.0549 18.4239C42.7547 18.5331 42.4387 18.5799 42.1227 18.6735C41.8857 18.7359 41.6803 18.8295 41.4591 18.9387C41.3959 18.9699 41.3169 19.0167 41.3011 19.1103C41.2537 19.3287 41.2695 19.5939 41.4433 19.7811C41.7593 20.1087 42.0911 20.4675 42.2333 20.9043C42.0437 20.9823 41.8541 21.0447 41.6487 21.0291C41.3327 20.9823 41.0483 20.7951 40.8429 20.5611C40.8113 20.5143 40.7481 20.4831 40.7481 20.4207C40.7165 20.2179 40.7323 19.9995 40.7165 19.7967C40.6217 19.7967 40.5269 19.7811 40.4321 19.7811C40.3057 19.9215 40.3373 20.1087 40.3215 20.2803C40.1003 20.2959 39.8791 20.2335 39.6737 20.1399C39.5631 20.2023 39.4367 20.2647 39.4209 20.4051C39.3893 20.5923 39.5157 20.7639 39.5789 20.9199C39.6263 21.0291 39.6421 21.1851 39.5473 21.2787C39.1365 21.7311 38.6151 22.0587 38.1095 22.4019C38.1253 22.4799 38.1253 22.5579 38.1411 22.6359C38.7415 22.5579 39.2945 22.2459 39.7211 21.8247C39.7527 21.7935 39.7843 21.7311 39.8001 21.6843C39.8791 21.4503 39.8949 21.2007 39.9423 20.9667C40.1161 20.9199 40.2899 20.8731 40.4637 20.8575C40.5585 21.0447 40.6375 21.2475 40.8113 21.3879C41.2537 21.7311 41.8857 21.7311 42.3913 21.5595C42.5651 21.4347 42.5651 21.1851 42.5651 20.9979C42.5335 20.7795 42.5809 20.5455 42.4703 20.3583C42.3123 20.0463 42.0279 19.7967 41.8857 19.4691C41.8541 19.3911 41.8541 19.2663 41.9489 19.2351C42.3281 19.0479 42.7547 18.9543 43.1655 18.8919C43.3393 19.6407 43.4341 20.3895 43.6869 21.1227C43.8133 20.9355 43.8291 20.7171 43.8291 20.4987C43.8133 19.9527 43.6079 19.4223 43.4973 18.8919C43.9397 18.6579 44.3979 18.3615 44.9193 18.4395C44.9035 18.5331 44.8877 18.6267 44.8245 18.6891C44.6823 18.8607 44.4611 18.9543 44.3189 19.1103C44.3189 19.1883 44.3189 19.2663 44.3189 19.3443C44.4137 19.3287 44.5401 19.3443 44.5875 19.2507C44.7929 18.9855 45.0299 18.7515 45.2037 18.4707C45.2827 18.3615 45.3143 18.2211 45.2669 18.0963C45.2511 18.0183 45.1721 17.9559 45.0931 17.9559C44.7297 17.9091 44.3663 18.0339 44.0187 18.1587C43.8133 18.2367 43.6079 18.3615 43.3709 18.3615C43.3867 18.1899 43.4815 18.0339 43.4973 17.8623C43.4973 17.7687 43.4499 17.6907 43.4025 17.6283C43.2287 17.3943 43.0865 17.1603 42.9601 16.9107C42.8179 17.0199 42.8021 17.2695 42.8179 17.4723ZM39.4209 18.9387C39.1997 19.0479 38.9627 19.1103 38.7573 19.2351C38.6467 19.3755 38.6151 19.5471 38.5677 19.7031C38.6625 19.7343 38.7573 19.7655 38.8363 19.7967C38.8205 19.8591 38.8205 19.9215 38.7731 19.9683C38.6941 20.0619 38.5677 20.0931 38.4571 20.1243C38.4571 20.1711 38.4413 20.2335 38.4413 20.2803C38.6783 20.2959 38.9627 20.2179 39.0891 20.0151C39.1681 19.8435 39.0891 19.6407 39.0733 19.4535C39.4051 19.2663 39.8001 19.1415 40.1003 18.8919C40.1477 18.8607 40.2109 18.8139 40.2109 18.7671C40.2109 18.7047 40.1951 18.6267 40.1951 18.5643C40.1319 18.5487 40.0687 18.5487 40.0213 18.5331C39.8317 18.6579 39.6421 18.8295 39.4209 18.9387ZM42.7073 19.8591C43.0391 20.7015 42.9127 21.6219 43.1655 22.4799C43.3077 22.3551 43.3235 22.1523 43.3393 21.9807C43.3867 21.6063 43.3393 21.2163 43.2919 20.8419C43.2603 20.5923 43.1813 20.3427 43.1655 20.0931C43.1497 19.9371 43.1971 19.7967 43.1655 19.6407C43.1023 19.4067 42.9285 19.2195 42.7389 19.0635C42.5809 19.3287 42.6125 19.6095 42.7073 19.8591ZM40.2425 21.7779C40.1319 21.8091 40.0845 21.9183 40.0371 22.0119C40.0055 22.1055 39.9581 22.2303 40.0213 22.3083C40.1161 22.4331 40.2583 22.5111 40.4163 22.5111C40.6217 22.4955 40.7639 22.2771 40.7797 22.0899C40.7481 21.8559 40.4637 21.7155 40.2425 21.7779Z" fill="black"/>
<path d="M28.5346 13.4159C29.135 13.3067 29.7354 13.3535 30.3358 13.3691C29.8934 13.5563 29.4352 13.7279 29.056 14.0087C29.1192 14.1023 29.1824 14.2115 29.2456 14.3051C28.898 14.5235 28.5346 14.7419 28.2502 15.0383C28.266 15.1319 28.2818 15.2099 28.3134 15.3035C27.792 15.7091 27.3812 16.2707 27.2706 16.9259C27.7604 16.6919 28.2502 16.4423 28.7874 16.2863C29.1192 16.1927 29.4668 16.1615 29.7986 16.1459C30.4464 16.1147 31.11 16.2083 31.6788 16.5047C32.0106 16.6763 32.295 16.9259 32.5162 17.2223C32.8796 17.6747 33.1008 18.2207 33.2272 18.7667C32.9902 18.4547 32.7058 18.1583 32.3266 18.0179C32.3108 18.2675 32.2792 18.5171 32.2792 18.7667C31.979 18.2831 31.4734 17.9399 30.9362 17.7839C30.9678 17.9867 31.0152 18.1895 31.0468 18.3923C30.6676 18.2519 30.3042 18.0491 29.8934 18.0803C29.9566 18.2987 30.0356 18.5171 30.1146 18.7511C29.5932 18.7043 29.0402 18.6107 28.5504 18.8291C28.0922 19.0007 27.8868 19.5623 28.0448 19.9991C28.4872 19.6715 28.977 19.3907 29.4984 19.2191C29.9882 19.0631 30.5254 19.0319 31.031 19.0787C31.6472 19.1255 32.2634 19.2815 32.8164 19.5779C33.164 19.7651 33.4958 19.9835 33.7644 20.2799C34.2542 20.8259 34.5228 21.5435 34.6176 22.2767C34.428 21.8867 34.2384 21.4655 33.8592 21.2315C33.8434 21.4499 33.8434 21.6527 33.8434 21.8711C33.559 21.2627 33.006 20.7167 32.3266 20.5919C32.3266 20.7791 32.3266 20.9819 32.3266 21.1691C31.8526 20.9819 31.347 20.7947 30.8256 20.8103C30.5728 20.8103 30.32 20.8883 30.083 20.9663C29.925 21.0131 29.7512 21.1067 29.6406 21.2471C30.2568 21.2471 30.873 21.2471 31.4576 21.4031C31.8842 21.5123 32.2792 21.6995 32.6268 21.9647C32.9744 22.2455 33.2588 22.6043 33.4484 22.9943C33.7328 23.5403 33.8276 24.1487 33.9224 24.7415C33.7012 24.3515 33.5116 23.9303 33.164 23.6339C33.085 23.5559 32.9902 23.5403 32.8954 23.5247C32.848 23.7587 32.8006 24.0083 32.7216 24.2267C32.5004 23.8835 32.3108 23.5091 31.9948 23.2595C31.9 23.1815 31.7736 23.1035 31.6472 23.0567C31.6472 23.2751 31.6472 23.5091 31.6472 23.7275C31.3628 23.3063 31.0468 22.9007 30.6202 22.6043C30.32 22.3859 29.9566 22.2455 29.5774 22.2299C29.688 22.4015 29.7986 22.5575 29.9724 22.6667C30.0988 22.7291 30.241 22.6667 30.3674 22.7291C30.399 22.7603 30.399 22.7915 30.4148 22.8227C30.5096 23.1503 30.5886 23.4935 30.6834 23.8211C30.8098 23.8211 30.9362 23.8367 31.0626 23.8367C31.1258 24.1643 31.189 24.4919 31.268 24.8195C31.4418 24.7883 31.6156 24.7415 31.7894 24.6947C31.9158 25.1939 31.979 25.7087 32.0738 26.2079C32.2318 26.2547 32.3266 26.0831 32.453 26.0207C32.5952 26.4887 32.6426 26.9879 32.769 27.4715C32.9112 27.3935 33.0534 27.3311 33.1956 27.2687C33.2746 27.7211 33.3378 28.1735 33.401 28.6259C33.5274 28.5947 33.6538 28.5791 33.7802 28.5479C33.8118 29.0315 33.8276 29.5151 33.875 29.9831C34.0014 29.9675 34.1436 29.9519 34.27 29.9363C34.3332 30.3887 34.3174 30.8567 34.349 31.3091C34.4912 31.3091 34.6176 31.3091 34.7598 31.3091C34.7598 31.7771 34.7598 32.2451 34.7914 32.7131C34.9178 32.6975 35.06 32.6975 35.1864 32.6819C35.139 33.0095 35.0442 33.3371 35.0284 33.6647C35.771 33.7115 36.5136 33.7739 37.2246 33.9299C37.667 34.0391 38.1094 34.1483 38.5518 34.3043C39.1206 34.4915 39.6736 34.7255 40.2266 34.9595C40.3214 34.9907 40.4162 35.0531 40.5268 35.0219C40.7164 34.9907 40.8744 34.9127 41.0482 34.8503C42.2806 34.3979 43.592 34.1951 44.8876 34.2419C45.172 34.2575 45.4406 34.2731 45.725 34.2731C45.7092 33.8519 45.6934 33.4307 45.6302 33.0095C45.7408 33.0407 45.8514 33.0719 45.962 33.1187C46.0252 32.6975 46.0568 32.2607 46.12 31.8239C46.2464 31.8707 46.3728 31.9019 46.4992 31.9487C46.5624 31.4339 46.6098 30.9347 46.6414 30.4199C46.752 30.4667 46.8784 30.4979 47.0048 30.5291C47.1312 29.9987 47.0996 29.4371 47.1312 28.8911C47.3208 28.9691 47.4946 29.0783 47.6684 29.1719C47.779 28.7195 47.7316 28.2515 47.7948 27.7991C47.937 27.8615 48.0634 27.9395 48.2056 28.0019C48.3004 27.4715 48.3794 26.9567 48.4584 26.4263C48.5848 26.5355 48.727 26.6447 48.8534 26.7383C49.0114 26.3171 49.0114 25.8647 49.1536 25.4435C49.3116 25.4435 49.4538 25.4279 49.6118 25.4279C49.6276 25.1627 49.6434 24.9131 49.6592 24.6479C49.8014 24.6167 49.9436 24.6011 50.0858 24.5855C50.149 24.4139 50.2122 24.2267 50.2754 24.0551C50.386 24.0551 50.4966 24.0551 50.6072 24.0551C50.7336 23.8367 50.86 23.6183 50.939 23.3687C50.4334 23.4311 49.991 23.7431 49.6908 24.1331C49.596 24.2579 49.5012 24.3827 49.4064 24.4919C49.3432 24.5699 49.201 24.5387 49.1536 24.4451C49.0746 24.3047 49.0746 24.1487 49.0114 24.0083C48.7586 24.2423 48.5848 24.5543 48.3636 24.8195C48.2846 24.9287 48.1424 24.9443 48.016 24.9911C48.0002 24.7415 48.0318 24.4763 47.9528 24.2267C47.5894 24.5855 47.2734 25.0067 46.91 25.3655C46.8626 24.7571 46.9732 24.1019 47.3208 23.5871C47.542 23.2595 47.8422 22.9631 48.1582 22.7291C48.6796 22.3547 49.3274 22.1207 49.991 22.1519C50.4018 22.1519 50.781 22.3079 51.176 22.3547C50.781 21.9959 50.2438 21.7931 49.7066 21.7463C49.3116 21.6995 48.9324 21.8711 48.569 22.0271C48.5216 21.8711 48.4584 21.7151 48.411 21.5747C47.9686 21.8087 47.5736 22.1207 47.226 22.4639C47.1944 22.3703 47.1628 22.2767 47.1154 22.1675C46.9574 22.1831 46.8152 22.2611 46.7046 22.3859C46.5624 22.5263 46.4676 22.6979 46.3412 22.8539C46.3412 22.2299 46.5308 21.6059 46.91 21.1223C47.1312 20.8571 47.4156 20.6075 47.7158 20.4359C48.2688 20.1083 48.9324 19.9679 49.5802 20.0147C50.4492 20.0459 51.2234 20.4515 51.9818 20.8259C52.203 20.9663 52.3926 21.1535 52.6296 21.2471C52.6138 20.8259 52.5032 20.3891 52.2346 20.0459C52.0924 19.8587 51.8712 19.7495 51.6342 19.7183C51.3498 19.6871 51.0654 19.7027 50.7968 19.7183C50.8284 19.4999 50.8758 19.2971 50.8916 19.0787C50.465 19.0475 50.0542 19.2347 49.7066 19.4843C49.754 19.2191 49.8172 18.9695 49.8488 18.7043C49.3116 18.7823 48.9008 19.1723 48.569 19.5623C48.5848 19.3439 48.5848 19.1255 48.5532 18.9071C48.1582 19.1099 47.8422 19.4531 47.4946 19.7183C47.4946 19.1723 47.6684 18.6263 48.016 18.2051C48.2056 17.9555 48.4742 17.7839 48.7586 17.6279C49.359 17.3159 50.0542 17.1599 50.7336 17.2067C51.1602 17.2223 51.5868 17.3471 51.9818 17.5031C52.4874 17.7215 52.9298 18.0647 53.388 18.3767C53.388 17.6903 52.9456 17.0663 52.3768 16.6919C52.4716 16.6139 52.5506 16.5515 52.6454 16.4735C52.5032 16.0523 52.0924 15.7871 51.6816 15.6311C51.7132 15.4907 51.6816 15.3347 51.5868 15.2255C51.3024 14.8823 50.8758 14.7419 50.5124 14.5079C51.1602 14.3363 51.8554 14.4143 52.4558 14.6795C52.8508 14.8667 53.2458 15.1007 53.5618 15.4127C54.2412 16.0367 54.6836 16.8947 54.8732 17.7839C55.1418 17.7059 55.2998 17.4719 55.521 17.3471C56.3584 16.8479 57.417 16.7231 58.3492 17.0039C58.7758 17.1443 59.1392 17.4563 59.3288 17.8619C59.5026 18.2051 59.629 18.5795 59.5974 18.9695C59.5184 18.9695 59.4394 18.9851 59.3604 18.9851C59.1866 18.7043 58.997 18.3611 58.6494 18.2675C58.6494 18.4547 58.6494 18.6263 58.6494 18.8135C58.2386 18.5171 57.7804 18.2519 57.259 18.2207C57.2906 18.3767 57.3222 18.5327 57.3538 18.7043C56.8324 18.5951 56.2636 18.5483 55.7738 18.7823C55.4894 18.9227 55.1892 19.0787 54.9996 19.3595C55.3472 19.3439 55.679 19.2503 56.0266 19.2035C57.0852 19.0787 58.1754 19.2659 59.1076 19.7807C59.6448 20.0927 60.1188 20.5139 60.5296 20.9819C61.1458 21.7619 61.367 22.8071 61.1142 23.7587C61.051 23.9771 61.0194 24.2267 60.8772 24.4295C60.7508 23.9459 60.6402 23.4467 60.4506 22.9787C60.261 23.1035 60.103 23.2907 59.8976 23.3999C59.8186 22.9787 59.7712 22.5419 59.708 22.1207C59.6606 21.9023 59.6448 21.6527 59.4868 21.4655C59.4236 21.3875 59.3288 21.3563 59.2498 21.3563C59.2498 21.5435 59.2498 21.7307 59.234 21.9179C59.155 21.9179 59.076 21.9023 58.997 21.9023C58.8232 21.4655 58.5704 20.9975 58.0806 20.8415C58.0806 21.0443 58.0806 21.2627 58.0964 21.4655C57.7172 21.1535 57.3064 20.8571 56.8008 20.7635C56.8956 21.0131 57.022 21.2471 57.0062 21.5279C56.5006 21.3563 55.9634 21.2471 55.4262 21.2783C55.1576 21.2939 54.9048 21.3563 54.6678 21.4499C54.4308 21.5435 54.1938 21.6371 54.0358 21.8399C55.0786 21.9335 56.153 22.1987 57.0378 22.7915C58.3018 23.6495 59.2024 24.9755 59.6132 26.4263C59.7712 27.0191 59.787 27.6431 59.6922 28.2359C59.629 28.5167 59.5816 28.7975 59.4394 29.0471C59.4236 28.3295 59.3446 27.6119 59.0286 26.9567C58.997 26.9567 58.9812 26.9879 58.9654 27.0035C58.8232 27.2063 58.7442 27.4559 58.602 27.6743C58.5072 27.2063 58.444 26.7071 58.2544 26.2703C58.1438 26.0207 57.9858 25.8023 57.7804 25.6151C57.6856 25.8647 57.6066 26.1299 57.496 26.3795C57.3222 26.0987 57.2274 25.7711 57.0694 25.4747C56.8166 24.9755 56.4374 24.5231 55.9634 24.1955C55.9002 24.3983 55.8844 24.6011 55.8686 24.8039C55.5052 24.4139 55.1734 23.9927 54.7468 23.6651C54.3518 23.3687 53.8778 23.1191 53.3564 23.0879C53.783 23.4623 54.2412 23.8055 54.6362 24.1955C55.2366 24.8039 55.679 25.5683 55.758 26.4263C55.7738 26.6915 55.7896 26.9879 55.6948 27.2375C55.5526 27.6275 55.1576 27.9083 54.7468 27.9239C54.8732 27.6431 55.0154 27.3467 55.047 27.0191C54.8574 27.0191 54.652 27.0191 54.4624 27.0347C54.5888 26.7383 54.6836 26.4263 54.652 26.0987C54.4624 26.1455 54.2886 26.2391 54.1148 26.3171C54.1148 25.8023 54.1306 25.2719 53.9726 24.7571C53.783 24.8819 53.7672 25.1159 53.6724 25.3031C53.6408 25.3031 53.5934 25.3187 53.5776 25.2719C53.3248 24.7883 53.1194 24.2579 52.677 23.8991C52.5664 23.8211 52.4242 23.8523 52.2978 23.8367C52.2504 23.8991 52.1872 23.9615 52.1398 24.0239C52.2188 24.0707 52.2978 24.1175 52.3768 24.1487C52.1082 24.3827 51.7922 24.5543 51.571 24.8351C51.6816 24.8975 51.7922 24.9443 51.887 25.0067C51.571 25.2719 51.1602 25.4591 50.9864 25.8491C51.1128 25.8803 51.2392 25.8959 51.3656 25.9271C51.3656 25.9583 51.3656 25.9895 51.3814 26.0051C50.939 26.2391 50.5124 26.5511 50.307 27.0347C50.4492 27.0659 50.5914 27.1127 50.7336 27.1439C50.3386 27.3935 49.8804 27.6119 49.675 28.0487C49.8646 28.1111 50.0542 28.1423 50.2438 28.1891C49.8646 28.5011 49.4538 28.7819 49.2168 29.2187C49.3748 29.2811 49.5486 29.2967 49.7066 29.3279C49.4222 29.6555 49.043 29.8895 48.806 30.2327C49.0272 30.2951 49.2642 30.3107 49.4854 30.3263C49.1694 30.6539 48.806 30.9347 48.5374 31.2935C48.4268 31.4495 48.332 31.6211 48.2688 31.8083C48.4426 31.8239 48.6164 31.8239 48.806 31.8395C48.4584 32.1515 48.1266 32.4947 47.9212 32.9159C48.1108 32.9627 48.3004 33.0095 48.49 33.0407C48.174 33.4463 47.7158 33.7739 47.5578 34.2887C48.727 34.4135 49.8804 34.6787 50.9864 35.0531C51.0338 35.7083 50.9864 36.3635 51.0338 37.0187C51.0812 37.8143 51.0496 38.6099 51.1128 39.4055C51.1444 40.1231 51.1286 40.8563 51.1602 41.5739C51.1918 41.8859 51.176 42.1823 51.1918 42.4943C51.2234 43.8203 51.2392 45.1307 51.2866 46.4567C51.3024 46.6439 51.1444 46.7843 51.0338 46.9247C50.6388 47.3771 50.307 47.8763 49.8646 48.2819C48.9324 47.7359 47.9844 47.2055 46.9416 46.8623C46.6888 46.7843 46.4202 46.7063 46.1516 46.6907C45.9146 46.6751 45.6934 46.7531 45.5038 46.8935C45.33 47.0495 45.2352 47.2991 45.2352 47.5331C45.4248 47.5019 45.6144 47.4551 45.804 47.4083C45.6776 47.7359 45.4564 48.0167 45.3616 48.3599C45.5828 48.3287 45.8198 48.2975 46.041 48.2663C45.804 48.8123 45.3932 49.3115 45.409 49.9199C45.6144 49.8731 45.8356 49.8107 46.041 49.7639C45.8514 50.3099 45.567 50.8247 45.567 51.4175C45.7882 51.3239 46.0252 51.2303 46.2464 51.1211C46.1516 51.5735 45.9462 51.9947 45.8988 52.4471C46.4202 52.3535 46.8942 52.1351 47.384 51.9323C48.6164 51.4019 49.7382 50.6531 50.7652 49.8107C51.3024 49.3271 51.8554 48.8747 52.3294 48.3131C53.388 47.1899 54.2728 45.9107 55.0312 44.5847C55.2998 44.0855 55.521 43.5707 55.7264 43.0403C56.1688 41.8859 56.5006 40.6847 56.6744 39.4679C56.864 38.1419 56.8956 36.8003 56.7218 35.4743C56.4532 33.2435 55.6474 31.0907 54.5572 29.1251C54.3044 28.6727 54.0516 28.2359 53.783 27.8147C53.4354 27.2843 53.072 26.7695 52.7086 26.2547C53.1036 26.5511 53.467 26.8943 53.7988 27.2687C54.0832 27.5807 54.3834 27.8615 54.6678 28.1735C55.3946 28.9847 56.0266 29.8583 56.6112 30.7787C57.1958 31.6835 57.6698 32.6507 58.0806 33.6491C58.997 35.9267 59.4552 38.3603 59.4868 40.8095C59.5026 42.1511 59.4078 43.4927 59.2182 44.8343C59.1392 45.3023 58.997 45.7547 58.8706 46.2227C58.3808 48.0791 57.6224 49.8731 56.6112 51.5111C56.1056 52.3067 55.5526 53.0867 54.9206 53.7887C54.7626 53.9603 54.6204 54.1319 54.4624 54.3035C52.5664 56.2691 50.1964 57.7667 47.6052 58.6715C47.1154 58.8743 46.6256 59.0303 46.1042 59.1707C45.3458 59.4203 44.5716 59.5607 43.7974 59.7323C43.434 59.7947 43.0706 59.8415 42.723 59.9039C42.5176 59.9351 42.3122 59.9819 42.1068 59.9819C41.617 59.9975 41.143 59.9975 40.6532 59.9975C40.0054 60.0131 39.3576 59.9351 38.694 59.8727C38.4728 59.8415 38.2358 59.8571 38.0146 59.8103C37.6038 59.7479 37.2088 59.6699 36.798 59.6075C36.5768 59.5607 36.3556 59.5451 36.1344 59.4827C35.4866 59.3111 34.8072 59.2019 34.1752 58.9679C34.033 58.9055 33.875 58.8587 33.7328 58.8119C33.085 58.5935 32.453 58.3127 31.8368 58.0319C31.3628 57.8291 30.9204 57.5795 30.4622 57.3143C29.5142 56.7527 28.6294 56.1287 27.8078 55.4111C27.4602 55.1303 27.1442 54.8339 26.844 54.5063C26.5438 54.1943 26.212 53.8979 25.9276 53.5703C25.7064 53.3207 25.501 53.0399 25.2956 52.7903C24.9796 52.4471 24.7268 52.0571 24.474 51.6827C24 51.0587 23.6366 50.3879 23.2416 49.7171C23.1468 49.5611 23.0836 49.4051 23.0046 49.2491C22.4358 48.1103 21.9302 46.9403 21.5194 45.7391C21.3614 45.2555 21.1876 44.7875 21.077 44.3039C21.0138 44.0543 21.0138 43.8047 20.9664 43.5551C20.7294 42.0575 20.6188 40.5287 20.682 39.0155C20.761 37.1279 21.0928 35.2559 21.7564 33.4775C22.104 32.5415 22.5464 31.6523 23.052 30.7943C23.5734 29.9051 24.1896 29.0783 24.8532 28.2827C25.3588 27.6743 25.896 27.0815 26.4964 26.5667C26.9704 26.1143 27.4602 25.6775 27.9816 25.2719C26.4806 27.1283 25.1534 29.1719 24.4108 31.4495C24.2844 31.8707 24.1738 32.2919 24.0474 32.7131C23.605 34.4291 23.5102 36.2231 23.6998 37.9859C23.842 39.2807 24.1106 40.5755 24.5372 41.8079C25.501 44.6471 27.2232 47.2367 29.53 49.1711C30.7466 50.1695 32.0896 51.0275 33.5116 51.6983C33.875 51.8855 34.2542 52.0727 34.6492 52.1819C34.586 51.7763 34.4438 51.3863 34.349 50.9807C34.5386 51.0587 34.744 51.1211 34.9336 51.1835C34.7914 50.6375 34.5544 50.1227 34.349 49.5923C34.6018 49.6235 34.8388 49.6703 35.0916 49.7015C34.902 49.1243 34.6176 48.5939 34.4122 48.0167C34.6334 48.1571 34.8546 48.2975 35.0916 48.4067C34.9494 47.9075 34.5702 47.5175 34.3806 47.0339C34.6176 47.0651 34.8704 47.0963 35.1074 47.1275C34.981 46.7375 34.7756 46.3787 34.6018 46.0043C33.0218 46.0667 31.4734 46.5971 30.1146 47.3927C29.9408 47.2835 29.7986 47.1431 29.6722 46.9871C29.3404 46.5659 28.9612 46.1915 28.6294 45.7703C28.5188 45.6455 28.5662 45.4739 28.582 45.3179C28.8506 42.4163 29.056 39.5303 29.293 36.6287C29.3404 35.9891 29.3878 35.3495 29.451 34.7099C29.4668 34.5071 29.4826 34.3043 29.4826 34.1171C30.083 33.8519 30.7466 33.7427 31.3786 33.6179C31.9474 33.5087 32.532 33.5087 33.1008 33.4931C32.9586 33.1343 32.7374 32.8223 32.5952 32.4791C32.69 32.4323 32.7848 32.4011 32.8796 32.3543C32.7532 31.9019 32.4056 31.5743 32.1844 31.1531C32.295 31.1063 32.4056 31.0595 32.5162 31.0127C32.2476 30.4979 31.8368 30.0767 31.505 29.6087C31.6946 29.6243 31.8842 29.6399 32.0738 29.6399C31.8368 29.2031 31.4102 28.8911 31.1416 28.4543C31.2364 28.4075 31.3312 28.3763 31.4102 28.3295C31.189 27.9083 30.9204 27.5339 30.6834 27.1283C30.7466 27.0815 30.8256 27.0191 30.8888 26.9723C30.6834 26.6291 30.4148 26.3015 30.1936 25.9739C30.2568 25.9427 30.32 25.9115 30.3832 25.8803C30.2884 25.6463 30.0988 25.4591 29.9408 25.2563C29.8776 25.1783 29.8144 25.1003 29.7986 24.9911C29.7828 24.8819 29.7986 24.7727 29.7354 24.6791C29.5932 24.4451 29.4194 24.2423 29.2614 24.0239C29.1508 23.8679 29.1824 23.6651 29.0876 23.4935C28.8664 23.1191 28.6452 22.7291 28.2976 22.4483C27.95 22.5731 27.5708 22.6979 27.3654 23.0255C27.2548 23.2595 27.0968 23.4935 26.9546 23.7119C26.8598 23.5091 26.7808 23.2907 26.686 23.1035C26.6544 23.1035 26.6228 23.1191 26.5912 23.1191C26.3858 23.6963 26.3858 24.3203 26.4806 24.9131C26.2752 24.7571 26.0698 24.6167 25.8328 24.5231C25.8644 24.8663 25.9592 25.1939 26.0066 25.5371C25.8802 25.5059 25.7538 25.4591 25.6116 25.4279C25.6432 25.8023 25.7222 26.1611 25.7064 26.5355C25.2798 26.4107 24.9164 26.1143 24.711 25.7399C24.5214 25.3031 24.553 24.8195 24.6636 24.3671C24.7584 24.0239 24.9006 23.7119 25.1218 23.4311C25.5484 22.8383 26.1488 22.4171 26.765 22.0427C26.8598 21.9959 26.9388 21.9023 27.002 21.8243C26.4174 21.9335 25.8644 22.1519 25.3746 22.4795C25.1692 22.6355 24.9954 22.8383 24.7584 22.9631C24.6952 22.8227 24.6162 22.6823 24.553 22.5263C24.1896 22.7135 23.8894 22.9943 23.605 23.2907C23.3206 23.5871 23.1152 23.9615 22.8466 24.2579C22.736 24.0551 22.6254 23.8523 22.499 23.6651C22.1988 23.8991 22.0724 24.2735 21.8828 24.6011C21.709 24.8975 21.5984 25.2251 21.4562 25.5527C21.393 25.3655 21.2982 25.1783 21.1876 25.0223C20.8084 25.5839 20.682 26.2703 20.4766 26.9099C20.3818 25.7867 20.524 24.6167 21.0138 23.5715C21.2034 23.1659 21.4404 22.7759 21.7248 22.4327C22.104 21.9803 22.5622 21.6059 23.0678 21.3095C23.4786 21.0755 23.921 20.9039 24.3792 20.7791C25.1218 20.5763 25.896 20.4827 26.6544 20.4047C26.607 20.3423 26.5596 20.2643 26.4806 20.2175C26.0856 19.9679 25.659 19.7807 25.2008 19.6715C24.6794 19.5467 24.158 19.5779 23.6208 19.6091C23.7156 19.3751 23.8262 19.1255 23.9052 18.8915C23.3364 18.8915 22.7992 19.1411 22.2936 19.4063C22.2778 19.2503 22.262 19.0787 22.2462 18.9227C22.0724 18.9539 21.9144 19.0319 21.7722 19.1411C21.5668 19.3127 21.4246 19.5467 21.2508 19.7495C21.1402 19.5623 21.0454 19.3595 20.8874 19.2191C20.3344 19.7183 20.129 20.4671 19.9868 21.1691C19.9394 21.0443 19.892 20.9195 19.813 20.8103C19.7814 20.7635 19.7182 20.7479 19.6708 20.7791C19.5918 20.8259 19.5444 20.9195 19.497 20.9819C19.2916 21.3095 19.1968 21.6683 19.102 22.0271C18.944 21.3875 18.8966 20.7167 19.0388 20.0615C19.1178 19.7027 19.2758 19.3439 19.5128 19.0475C19.971 18.4547 20.6188 18.0335 21.2982 17.7527C22.104 17.4095 22.9888 17.3315 23.842 17.4407C24.1422 17.4719 24.4424 17.5343 24.7268 17.5967C24.9638 17.6591 25.2166 17.7371 25.4694 17.7683C25.343 17.5967 25.1692 17.4719 24.9954 17.3471C24.474 17.0039 23.8736 16.7699 23.2574 16.6139C23.2258 16.4735 23.1942 16.3331 23.1626 16.1927C22.7044 16.1927 22.2778 16.3799 21.867 16.5671C21.867 16.3799 21.867 16.1771 21.8512 15.9899C21.6932 15.9743 21.5352 16.0211 21.4088 16.0991C21.1718 16.2395 20.998 16.4579 20.7768 16.6139C20.7294 16.2707 20.7452 15.8807 20.9348 15.5843C21.1402 15.2723 21.472 15.0539 21.8196 14.9447C22.183 14.8355 22.578 14.8199 22.9572 14.8667C23.6524 14.9603 24.2844 15.3035 24.8848 15.6467C25.2166 15.8339 25.501 16.0835 25.8486 16.2395C25.9908 15.7091 26.0856 15.1631 26.37 14.6951C26.5754 14.3363 26.8914 14.0867 27.2074 13.8371C27.6182 13.7123 28.0764 13.5251 28.5346 13.4159ZM28.6136 22.4015C28.819 22.7759 29.0876 23.1035 29.293 23.4779C29.4352 23.7119 29.5774 23.9615 29.7196 24.1955C30.7308 25.8803 31.584 27.6587 32.2634 29.5151C32.5478 30.2795 32.7848 31.0751 33.0376 31.8551C33.2114 32.4167 33.3378 32.9939 33.5116 33.5555C33.7644 33.6335 34.033 33.5555 34.2858 33.5243C34.27 33.1343 34.1436 32.7599 34.0488 32.3855C33.4168 29.9987 32.5162 27.6743 31.3628 25.4903C31.2048 25.1471 31.031 24.8195 30.8414 24.5075C30.6044 24.1019 30.3674 23.6963 30.1146 23.3063C29.8144 22.8227 29.4984 22.3391 29.1666 21.8711C28.9454 21.9803 28.7084 22.1363 28.6136 22.4015ZM51.4762 23.0723C51.3814 23.1815 51.3182 23.3063 51.2392 23.4155C50.9548 23.8679 50.6862 24.3359 50.4176 24.8039C49.833 25.8335 49.2326 26.8475 48.727 27.9239C47.7632 29.9363 46.8942 31.9955 46.3412 34.1639C46.5782 34.1795 46.831 34.1639 47.068 34.1639C47.2734 33.6023 47.3682 33.0095 47.5736 32.4323C48.5848 29.3747 50.149 26.5355 51.9818 23.8835C52.0924 23.7119 52.2504 23.5403 52.2978 23.3375C52.0766 23.2595 51.8554 23.1503 51.6342 23.0723C51.6026 23.0567 51.5236 23.0255 51.4762 23.0723ZM29.767 34.3199C29.688 35.0531 29.6564 35.8019 29.6248 36.5351C29.5932 37.1435 29.5458 37.7519 29.5142 38.3603C29.3878 40.4819 29.3088 42.6191 29.1666 44.7407C29.135 45.0683 29.135 45.3959 29.1508 45.7079C29.5616 45.6299 29.9566 45.4583 30.3516 45.3491C32.4214 44.7407 34.6808 44.6783 36.7664 45.3023C37.8092 45.6143 38.7888 46.0979 39.7052 46.6907C39.879 46.7999 40.037 46.9247 40.2266 47.0027C40.5742 46.8467 40.8902 46.6283 41.2378 46.4879C42.881 45.7079 44.7454 45.3335 46.5624 45.4895C47.7474 45.5831 48.9166 45.8639 50.0226 46.2851C50.3228 46.3943 50.5914 46.5347 50.9074 46.6283C50.9074 45.7859 50.8916 44.9591 50.86 44.1167C50.8442 43.3055 50.8442 42.5099 50.8284 41.6987C50.8284 41.4179 50.7968 41.1371 50.7968 40.8563C50.7652 39.9671 50.7652 39.0779 50.7494 38.1887C50.7494 37.5959 50.702 37.0187 50.7178 36.4259C50.7178 36.0983 50.7178 35.7707 50.6862 35.4431C50.6546 35.3339 50.5282 35.3183 50.4334 35.2871C49.1062 34.8815 47.7158 34.6163 46.3096 34.6007C45.646 34.5851 44.9824 34.6319 44.3346 34.7099C43.1654 34.8347 41.9962 35.0375 40.8744 35.3963C40.6848 35.4743 40.4952 35.3807 40.3214 35.3027C39.4524 34.9595 38.5676 34.6943 37.6512 34.4603C36.4978 34.1483 35.297 34.0079 34.0962 33.9299C32.6426 33.8675 31.189 34.0391 29.767 34.3199ZM35.3602 46.3787C35.376 46.5191 35.376 46.6439 35.4076 46.7843C35.4866 47.3771 35.5498 47.9699 35.5972 48.5627C35.6604 49.8263 35.5814 51.1055 35.3918 52.3535C35.3918 52.4471 35.3444 52.6031 35.455 52.6499C35.7394 52.7279 36.0238 52.8059 36.3082 52.8527C36.4188 52.7435 36.4504 52.5719 36.482 52.4315C36.6874 51.6359 36.8612 50.8403 36.9718 50.0447C37.0508 49.4831 37.0508 48.9059 37.0508 48.3443C37.035 47.7203 36.956 47.0963 36.7664 46.5191C36.2924 46.4411 35.8184 46.4255 35.3602 46.3787ZM43.7816 46.8467C43.276 48.2975 43.1812 49.8731 43.4024 51.4019C43.4972 52.0103 43.5446 52.6187 43.75 53.1959C44.1924 53.0555 44.619 52.8995 45.0614 52.7435C45.0456 51.9479 44.9192 51.1523 44.9034 50.3411C44.8876 49.4831 44.856 48.6251 44.9982 47.7827C45.0614 47.4083 45.1562 47.0495 45.2036 46.6907C44.7296 46.7219 44.2556 46.7843 43.7816 46.8467ZM40.0686 48.2819C39.721 47.9855 39.4366 47.6423 39.0574 47.3927C38.7098 47.1587 38.3464 46.9247 37.9356 46.8311C37.8092 47.1587 37.667 47.4863 37.588 47.8295C37.6828 47.8451 37.7934 47.8607 37.8882 47.8763C37.825 48.2663 37.6986 48.6563 37.667 49.0619C37.7618 49.0775 37.8408 49.0931 37.9356 49.1243C37.825 49.7015 37.6512 50.2787 37.5722 50.8715C37.6828 50.8715 37.7776 50.8715 37.8882 50.8715C37.825 51.1991 37.6512 51.5111 37.5406 51.8231C37.667 51.8543 37.8092 51.8699 37.9356 51.9011C37.7776 52.2911 37.5564 52.6655 37.3826 53.0555C37.5248 53.1335 37.6828 53.1647 37.8408 53.1959C38.536 53.2895 39.247 53.3987 39.958 53.4143C40.9376 53.4299 41.9172 53.4767 42.881 53.2583C42.7704 52.8839 42.5492 52.5251 42.4386 52.1507C42.6756 52.1195 42.9126 52.1195 43.1496 52.1039C42.9442 51.6203 42.5966 51.2147 42.3912 50.7155C42.5334 50.6999 42.6756 50.6843 42.8178 50.6843C42.7388 50.1851 42.4544 49.7483 42.3912 49.2491C42.565 49.2335 42.7388 49.2179 42.9126 49.2023C42.7862 48.7967 42.5808 48.4067 42.4544 48.0011C42.5808 47.9387 42.7072 47.8919 42.8178 47.8295C42.802 47.5019 42.7072 47.1743 42.644 46.8467C41.7276 47.1743 40.906 47.7515 40.0686 48.2819Z" fill="black"/>
<path d="M29.5459 23.2129C29.6249 23.2285 29.7039 23.2597 29.7671 23.3221C29.8619 23.4157 29.8777 23.5561 29.8777 23.6965C29.7987 23.6809 29.7197 23.6653 29.6723 23.6185C29.5617 23.5093 29.5459 23.3533 29.5459 23.2129Z" fill="black"/>
<path d="M30.1621 24.3203C30.2727 24.3515 30.3991 24.3671 30.4623 24.4763C30.4939 24.5855 30.4781 24.6947 30.4781 24.8039C30.2727 24.7103 30.1621 24.5075 30.1621 24.3203Z" fill="black"/>
<path d="M50.7493 24.8509C50.7335 24.6637 50.8125 24.4609 51.0179 24.4141C51.0653 24.4609 51.1285 24.5233 51.1127 24.6013C51.0811 24.7417 50.9073 24.8665 50.7493 24.8509Z" fill="black"/>
<path d="M50.291 25.413C50.3542 25.3662 50.4332 25.3506 50.4964 25.3506C50.5122 25.4754 50.4964 25.6002 50.4174 25.6938C50.3542 25.7718 50.2594 25.803 50.1646 25.8186C50.133 25.6626 50.1646 25.5066 50.291 25.413Z" fill="black"/>
<path d="M30.8255 25.3975C31.0151 25.4911 31.1257 25.6939 31.1099 25.8967C31.0309 25.8811 30.9361 25.8655 30.8887 25.8031C30.7781 25.6939 30.7781 25.5223 30.8255 25.3975Z" fill="black"/>
<path d="M49.5799 26.8792C49.5641 26.6608 49.7221 26.4892 49.9275 26.4268C49.9749 26.5828 49.9275 26.7544 49.8169 26.8792C49.7221 26.8792 49.6431 26.8792 49.5799 26.8792Z" fill="black"/>
<path d="M31.4578 26.7696C31.5842 26.754 31.7264 26.832 31.7738 26.9568C31.8212 27.0504 31.7896 27.1596 31.7422 27.2532C31.5684 27.1596 31.442 26.9568 31.4578 26.7696Z" fill="black"/>
<path d="M49.0903 27.706C49.1535 27.6592 49.2325 27.6592 49.2957 27.6436C49.2957 27.7528 49.2799 27.8776 49.2009 27.9712C49.1377 28.0492 49.0271 28.0648 48.9481 28.0648C48.9481 27.9244 48.9797 27.784 49.0903 27.706Z" fill="black"/>
<path d="M13.098 33.8207C13.572 31.7771 14.283 29.7647 15.3258 27.9395C15.8314 28.0955 16.3054 28.3451 16.7952 28.5479C17.2218 28.7507 17.6484 28.9223 18.075 29.1251C17.996 29.4371 17.8538 29.7179 17.7116 30.0143C17.206 29.8115 16.7004 29.5775 16.2106 29.3591C16.0684 29.2967 15.9262 29.2343 15.784 29.2031C15.6418 29.3591 15.5786 29.5463 15.4838 29.7179C14.9308 30.8255 14.4726 31.9799 14.1566 33.1811C14.5358 33.3371 14.915 33.5087 15.31 33.6335C15.468 33.2279 15.5628 32.8067 15.705 32.3855C17.2376 32.7755 18.7386 33.2747 20.2712 33.6491C20.208 33.9767 20.0816 34.2887 19.9552 34.5851C19.4338 34.5071 18.9598 34.273 18.4542 34.1171C18.3436 34.0703 18.2172 34.0858 18.0908 34.0702C17.9802 34.5694 17.8696 35.0687 17.8696 35.5835C18.4068 35.6927 18.9598 35.7862 19.4812 35.9422C19.418 37.3462 19.2284 38.7347 19.102 40.1231C18.4542 40.1231 17.8064 40.0918 17.1586 40.0762C16.2738 39.9982 15.3732 40.0294 14.4884 39.9046C14.5674 38.3291 14.678 36.7379 15.0888 35.1935C15.6418 35.2091 16.1948 35.2715 16.7478 35.3027C16.7952 35.2715 16.8426 35.2246 16.8584 35.1622C16.9058 35.0062 16.9374 34.8502 16.9848 34.6942C17.0638 34.3978 17.1586 34.1015 17.1902 33.7895C16.9058 33.7271 16.6372 33.6647 16.3528 33.6647C16.2738 34.0235 16.2106 34.3822 16.1474 34.741C15.9578 34.7255 15.7682 34.6787 15.5786 34.6319C14.757 34.3511 13.9038 34.1327 13.098 33.8207ZM15.626 38.0326C15.6102 38.3758 15.5786 38.7035 15.6102 39.0466C15.8472 39.0623 16.0842 39.0778 16.3054 39.0466C16.3686 38.641 16.3528 38.2354 16.4002 37.8142C16.4476 37.315 16.5582 36.8314 16.653 36.3322C16.3686 36.2698 16.1 36.2074 15.8156 36.1918C15.705 36.8003 15.6734 37.4087 15.626 38.0326ZM17.6168 36.3167C17.4904 37.2527 17.3956 38.1887 17.4114 39.1247C17.6326 39.1402 17.8538 39.1402 18.075 39.1402C18.154 38.8594 18.154 38.5786 18.1698 38.2822C18.1856 38.1106 18.2014 37.9391 18.2172 37.7675C18.2646 37.2995 18.3752 36.8626 18.4542 36.3947C18.1856 36.3635 17.9012 36.3011 17.6168 36.3167Z" fill="black"/>
<path d="M31.979 27.9395C32.058 27.9551 32.1528 27.9707 32.2318 27.9707C32.2792 28.1111 32.3108 28.2515 32.3424 28.3919C32.2634 28.3919 32.1844 28.3763 32.1054 28.3763C32.0422 28.2359 31.979 28.0955 31.979 27.9395Z" fill="black"/>
<path d="M48.3635 29.0944C48.4109 28.9852 48.5373 28.9228 48.6479 28.876C48.6479 28.9852 48.6637 29.0944 48.6321 29.188C48.5689 29.266 48.4583 29.3128 48.3635 29.3596C48.3319 29.2816 48.3161 29.1724 48.3635 29.0944Z" fill="black"/>
<path d="M32.5795 29.4531C32.6585 29.4531 32.7375 29.4531 32.8165 29.4531C32.8955 29.5935 32.9429 29.7495 32.9271 29.9211C32.7059 29.8743 32.5953 29.6559 32.5795 29.4531Z" fill="black"/>
<path d="M47.8738 30.2645C47.937 30.2021 48.016 30.1865 48.095 30.1709C48.095 30.3113 48.0634 30.4673 47.9528 30.5609C47.8896 30.6077 47.8264 30.6077 47.7474 30.6077C47.7632 30.4985 47.779 30.3581 47.8738 30.2645Z" fill="black"/>
<path d="M59.9924 31.5125C60.893 31.2629 61.7778 30.9821 62.6784 30.7637C63.2314 31.7153 63.658 32.7293 64.0056 33.7745C64.1636 34.2269 64.2742 34.6793 64.3848 35.1473C64.5428 35.8493 64.6692 36.5669 64.6534 37.2845C63.579 37.4873 62.5046 37.6901 61.446 37.9085C61.1932 37.9553 60.9404 38.0021 60.6876 38.0333C60.6086 37.9865 60.577 37.8929 60.577 37.8149C60.5454 37.5965 60.5296 37.3625 60.5138 37.1285C61.5882 36.8789 62.6942 36.6917 63.7528 36.3953C63.3736 34.7885 62.868 33.2129 62.2044 31.7153C61.8568 31.8089 61.525 31.9649 61.1932 32.1053C61.2406 32.4173 61.3828 32.6981 61.4934 32.9945C61.762 33.7589 62.1096 34.4921 62.3308 35.2721C62.0622 35.3657 61.7778 35.4125 61.4934 35.4749C61.3354 35.2877 61.2722 35.0381 61.1932 34.8197C60.9562 34.1957 60.7192 33.5561 60.4822 32.9321C60.3874 32.6825 60.3084 32.4329 60.1978 32.1989C60.1188 31.9649 60.024 31.7465 59.9924 31.5125Z" fill="black"/>
<path d="M33.0536 30.8877C33.1326 30.8877 33.2116 30.8877 33.2906 30.8877C33.3696 31.0281 33.417 31.1841 33.4012 31.3557C33.3222 31.3401 33.259 31.3245 33.1958 31.2777C33.101 31.1685 33.0694 31.0281 33.0536 30.8877Z" fill="black"/>
<path d="M47.3999 31.5906C47.4631 31.5126 47.5737 31.4814 47.6685 31.4814C47.6685 31.6218 47.6369 31.7935 47.5105 31.8871C47.4473 31.9339 47.3683 31.9339 47.3051 31.9183C47.3051 31.8091 47.3209 31.6842 47.3999 31.5906Z" fill="black"/>
<path d="M33.5433 32.4951C33.6223 32.5107 33.7013 32.5263 33.7487 32.5887C33.8435 32.6979 33.8751 32.8383 33.8751 32.9787C33.7645 32.9475 33.6223 32.9163 33.5749 32.8071C33.5275 32.6979 33.5433 32.5887 33.5433 32.4951Z" fill="black"/>
<path d="M64.511 32.9473C64.8112 32.8225 65.1272 32.8693 65.4432 32.8849C65.6012 33.3529 65.7434 33.8209 65.9014 34.2889C65.6012 34.3825 65.2852 34.3825 64.985 34.3825C64.8112 33.9145 64.6848 33.4153 64.511 32.9473Z" fill="black"/>
<path d="M46.8783 33.2441C46.9573 33.1973 47.0521 33.2129 47.1311 33.1973C47.1311 33.3377 47.0837 33.5093 46.9573 33.5873C46.8941 33.6341 46.8151 33.6185 46.7361 33.6185C46.7677 33.4781 46.7993 33.3533 46.8783 33.2441Z" fill="black"/>
<path d="M44.3981 35.6151C44.8879 35.4123 45.3303 35.0847 45.8517 34.9443C45.8517 35.0379 45.8675 35.1315 45.8675 35.2407C45.7727 35.3499 45.6305 35.3967 45.5041 35.4591C45.2197 35.5839 44.9353 35.7243 44.6509 35.8491C44.5877 35.8647 44.5245 35.9115 44.4771 35.8803C44.3823 35.8023 44.4139 35.6931 44.3981 35.6151Z" fill="black"/>
<path d="M32.6426 35.6155C33.006 35.4595 33.3536 35.2567 33.7328 35.1475C33.7012 35.2879 33.7012 35.4595 33.559 35.5531C33.243 35.7091 32.8954 35.8339 32.5794 35.9899C32.4056 36.0679 32.2476 36.1615 32.0738 36.2239C31.8526 36.3175 31.6156 36.3799 31.3786 36.4579C31.3628 36.6451 31.3786 36.8479 31.347 37.0351C31.268 37.1599 31.11 37.1911 30.9836 37.2535C31.031 37.1131 31.0942 36.9727 31.1258 36.8167C31.1732 36.6451 31.0468 36.5047 30.9836 36.3643C31.5208 36.0991 32.0738 35.8495 32.6426 35.6155Z" fill="black"/>
<path d="M36.6243 36.0672C37.193 35.8332 37.7302 35.568 38.3148 35.3496C38.3148 35.4432 38.3148 35.5368 38.299 35.6148C37.7776 35.8644 37.272 36.1296 36.7507 36.3792C36.5453 36.4728 36.3557 36.5976 36.1187 36.6132C36.1345 36.504 36.1345 36.3636 36.1977 36.27C36.3241 36.192 36.4821 36.1296 36.6243 36.0672Z" fill="black"/>
<path d="M34.9652 35.4436C34.9968 35.428 35.0126 35.4748 35.0442 35.4904C35.218 35.7088 35.297 35.974 35.3444 36.2392C35.4392 36.6136 35.4866 37.0036 35.5498 37.3936C35.5972 37.6276 35.6446 37.8772 35.771 38.0956C35.8816 38.2828 36.0396 38.4544 36.2608 38.5168C36.5136 38.5792 36.798 38.5324 37.035 38.4076C37.6354 38.0956 38.0304 37.5184 38.5992 37.1752C38.7098 37.1128 38.8362 37.0972 38.9468 37.1596C39.0258 37.1908 39.0574 37.2844 39.1048 37.3624C39.2786 37.7056 39.3576 38.1112 39.3102 38.4856C39.2786 38.704 39.0732 38.8912 38.852 38.86C38.536 38.8288 38.3148 38.5948 38.0304 38.47C37.5248 38.704 37.0192 39.0004 36.4346 38.9848C35.9764 38.9848 35.5024 38.704 35.3444 38.2672C35.1706 37.7368 35.0916 37.1752 34.9968 36.6136C34.9494 36.3172 34.902 36.0208 34.902 35.7244C34.9178 35.6308 34.9336 35.5372 34.9652 35.4436ZM38.615 37.846C38.4886 37.8928 38.457 38.0488 38.4886 38.1736C38.536 38.2984 38.694 38.3764 38.8204 38.314C38.9942 38.2516 39.01 37.9552 38.852 37.8772C38.773 37.8304 38.694 37.8148 38.615 37.846Z" fill="black"/>
<path d="M47.3368 36.1611C47.7476 35.7087 48.3796 35.4903 48.98 35.5215C48.98 35.6307 48.9642 35.7555 48.9642 35.8647C48.6482 35.9271 48.3322 35.9583 48.032 36.0831C47.8424 36.1611 47.6686 36.2859 47.479 36.3483C47.3684 36.4107 47.2578 36.2391 47.3368 36.1611Z" fill="black"/>
<path d="M45.4405 36.3015C45.2035 36.0831 45.3141 35.6775 45.5985 35.5527C45.6301 35.6775 45.6459 35.7867 45.6775 35.9115C45.8987 35.8491 46.1199 35.7555 46.2779 35.5839C46.3885 35.7555 46.3569 36.0363 46.1673 36.1455C45.9145 36.2079 45.6775 36.2547 45.4405 36.3015Z" fill="black"/>
<path d="M34.0645 36.4266C34.0329 36.1926 34.0487 35.943 34.1435 35.7246C34.3173 35.8806 34.4437 36.099 34.5069 36.3174C34.6017 36.567 34.6491 36.8478 34.6965 37.113C34.7597 37.425 34.7913 37.7526 34.7281 38.0646C34.6807 38.3142 34.5069 38.517 34.2857 38.6262C34.1277 38.7198 33.9381 38.7354 33.7643 38.751C33.3061 38.7822 32.8637 38.6886 32.4213 38.6574C32.3107 38.7978 32.1843 38.9538 32.0105 38.985C31.7735 38.985 31.5839 38.829 31.3469 38.829C31.1415 38.9382 30.9993 39.141 30.7623 39.219C30.5569 39.297 30.3515 39.2814 30.1461 39.297C30.4779 39.0318 30.8097 38.7666 31.0783 38.439C31.2363 38.2518 31.3469 38.0178 31.4101 37.7838C31.4417 37.6746 31.4417 37.5498 31.5049 37.4406C31.5839 37.269 31.7735 37.1442 31.9631 37.1598C32.0737 37.1598 32.1369 37.2534 32.2001 37.3158C32.3739 37.5342 32.4687 37.815 32.5793 38.0646C33.0849 38.1582 33.6063 38.127 34.1119 38.0334C34.2067 38.0178 34.3015 37.9866 34.3963 37.9398C34.3647 37.425 34.1277 36.9414 34.0645 36.4266ZM31.7261 38.2518C31.8209 38.2986 31.9315 38.2674 32.0421 38.2674C32.0579 38.1426 32.0737 38.0022 32.0263 37.8774C31.9157 37.8306 31.8051 37.8462 31.6945 37.8462C31.6945 37.971 31.6471 38.127 31.7261 38.2518Z" fill="black"/>
<path d="M42.5335 36.2862C42.8969 36.099 43.2603 35.8962 43.6395 35.7246C43.6869 35.8338 43.7027 35.943 43.7185 36.0522C43.2129 36.2706 42.7231 36.5202 42.2175 36.723C42.2491 36.6294 42.2649 36.5358 42.3281 36.4422C42.3755 36.3642 42.4545 36.3174 42.5335 36.2862Z" fill="black"/>
<path d="M45.7724 36.6132C45.8988 36.5976 46.0094 36.5664 46.1358 36.5508C46.2306 36.8472 46.2306 37.1748 46.2464 37.4868C46.278 37.7364 46.2622 37.986 46.3412 38.22C46.4202 38.4852 46.6572 38.7036 46.9416 38.7348C47.1628 38.766 47.3998 38.7036 47.621 38.6724C47.5578 38.3604 47.4472 38.0484 47.4946 37.7364C47.542 37.4712 47.6842 37.206 47.9212 37.05C48.0792 36.9408 48.2846 36.9252 48.4584 36.9564C48.7902 37.0188 49.0904 37.2216 49.359 37.4088C49.201 37.4712 49.0588 37.5648 48.885 37.5804C48.648 37.5336 48.4584 37.3776 48.2214 37.362C48.095 37.362 47.937 37.4088 47.8896 37.5492C47.8264 37.7208 47.858 37.908 47.9054 38.0796C47.937 38.2044 48.0318 38.3292 48.1582 38.3604C48.3478 38.4228 48.5374 38.4696 48.727 38.4072C48.9482 38.3448 49.1378 38.2044 49.3748 38.1576C49.4538 38.142 49.5486 38.1576 49.596 38.22C49.7224 38.3604 49.7066 38.61 49.5328 38.7036C49.3432 38.7816 49.122 38.7504 48.9324 38.844C48.5374 39.0468 48.1424 39.2184 47.7 39.312C47.3366 39.39 46.9416 39.39 46.594 39.2652C46.278 39.1404 46.0726 38.8596 45.8356 38.6568C45.6144 38.8284 45.409 39.0312 45.1562 39.156C44.9034 39.2808 44.619 39.312 44.3346 39.2652C44.145 39.2496 43.9554 39.156 43.7658 39.2028C43.6078 39.234 43.4498 39.2964 43.2918 39.2808C43.1654 39.2652 43.039 39.234 42.9126 39.2028C42.723 39.39 42.565 39.5928 42.328 39.7332C42.1858 39.7956 42.012 39.7488 41.8698 39.7488C41.8698 39.7176 41.854 39.6708 41.854 39.6552C42.1858 39.4992 42.5176 39.312 42.6914 38.9844C42.8336 38.5944 42.802 38.142 43.0548 37.7832C43.118 37.674 43.2918 37.6116 43.4024 37.6896C43.7658 37.9392 43.8922 38.4228 44.303 38.6256C44.7138 38.7972 45.2036 38.6724 45.5828 38.4696C45.7092 38.4072 45.8198 38.3292 45.9304 38.2512C45.9146 37.6896 45.7724 37.1592 45.7724 36.6132ZM43.1654 38.2356C43.1022 38.376 43.118 38.532 43.1812 38.6724C43.2918 38.6568 43.3866 38.6568 43.4972 38.6412C43.513 38.532 43.513 38.4228 43.4656 38.3136C43.4024 38.2356 43.276 38.2512 43.1654 38.2356Z" fill="black"/>
<path d="M62.1887 38.7978C63.0577 38.7978 63.9109 38.7666 64.7799 38.751C64.8589 38.751 65.0011 38.751 65.0011 38.8602C65.2065 39.9834 65.2697 41.1222 65.2697 42.261C65.2697 42.729 65.2697 43.197 65.2223 43.6806C65.0011 46.395 64.2901 49.0782 63.1683 51.5742C62.5995 52.8066 61.9675 53.9922 61.2723 55.1622C61.0985 55.4274 60.9247 55.7082 60.7351 55.9578C60.5613 55.5834 60.4349 55.209 60.2927 54.8346C60.1821 54.5226 60.0399 54.2262 59.9451 53.9142C59.5975 52.9626 59.2025 52.011 58.8707 51.0594C58.8391 50.9814 58.8075 50.919 58.8233 50.841C58.8391 50.7318 58.8865 50.6382 58.9339 50.5446C59.0761 50.2794 59.2341 49.9986 59.3605 49.7334C59.5185 49.749 59.6607 49.7958 59.8187 49.8582C60.5455 50.1546 61.2881 50.451 62.0149 50.7474C62.1571 50.8098 62.3151 50.841 62.4889 50.8722C62.7259 50.373 62.8839 49.827 63.0577 49.2966C62.4415 49.047 61.7937 48.891 61.1617 48.6882C61.2249 48.111 61.3987 47.565 61.5251 47.0034C61.7147 46.2078 61.8411 45.3966 62.0781 44.6166C62.4099 44.679 62.7259 44.757 63.0419 44.8662C62.8681 45.6774 62.7259 46.5042 62.5521 47.3154C62.5205 47.487 62.4731 47.6742 62.4573 47.8458C62.4573 47.9082 62.4731 48.0018 62.5521 48.033C62.8365 48.1266 63.1367 48.189 63.4211 48.2514C63.9899 46.6446 64.1479 44.9442 64.3533 43.2594C63.6897 43.0878 62.9945 43.0566 62.3309 42.8694C62.2519 41.871 62.2677 40.8726 62.2203 39.8742C62.1887 39.4998 62.1413 39.141 62.1887 38.7978ZM63.0735 39.6246C63.0577 40.4358 63.1525 41.247 63.1367 42.0738C63.5475 42.1518 63.9583 42.1518 64.3691 42.1518C64.3849 41.5902 64.3691 41.0286 64.3691 40.467C64.3691 40.2174 64.3849 39.9522 64.3217 39.7026C63.8951 39.687 63.4843 39.6246 63.0735 39.6246ZM59.8029 51.1062C60.1505 51.9954 60.5455 52.8534 60.8931 53.7426C60.9089 53.805 60.9563 53.8362 61.0195 53.8518C61.3355 53.259 61.6673 52.6818 61.9675 52.0734C61.6989 51.8862 61.3671 51.777 61.0827 51.6522C60.6403 51.4494 60.2295 51.2466 59.8029 51.1062Z" fill="black"/>
<path d="M38.2359 40.0455C38.4255 39.9519 38.6151 39.8739 38.8047 39.8271C38.8047 39.9207 38.8047 40.0299 38.7099 40.0923C38.4097 40.2795 38.0937 40.4199 37.7777 40.5759C37.5723 40.6851 37.3669 40.7787 37.1615 40.8879C36.9877 40.9815 36.7981 41.0595 36.6085 41.0907C36.6243 40.9503 36.6085 40.7787 36.7507 40.7007C37.2405 40.4823 37.7461 40.2795 38.2359 40.0455Z" fill="black"/>
<path d="M31.9948 40.4825C32.4214 40.2953 32.848 40.0769 33.3062 39.9209C33.2904 40.0457 33.3062 40.2173 33.1798 40.2953C32.4688 40.6385 31.7104 40.9037 30.9994 41.2625C30.8888 41.4497 31.0152 41.6837 30.8888 41.8709C30.8256 41.9801 30.6676 41.9801 30.557 42.0269C30.5886 41.8709 30.6834 41.7305 30.6992 41.5589C30.715 41.4029 30.6202 41.2781 30.557 41.1533C31.031 40.9193 31.505 40.7009 31.9948 40.4825Z" fill="black"/>
<path d="M45.03 40.4203C45.0458 40.2018 45.2512 40.0146 45.4724 40.0146C45.583 40.0146 45.7094 40.0927 45.741 40.2019C45.7884 40.3423 45.7568 40.4826 45.6778 40.6074C45.5514 40.7946 45.346 40.9194 45.1406 41.0131C45.267 40.8258 45.3934 40.6387 45.4882 40.4359C45.3302 40.4203 45.188 40.4203 45.03 40.4203Z" fill="black"/>
<path d="M48.0793 40.3423C48.1899 40.2955 48.3479 40.2799 48.4269 40.3891C48.5375 40.5139 48.5217 40.7011 48.4901 40.8415C48.4111 41.0599 48.1899 41.1691 47.9845 41.2315C48.0793 41.0599 48.1741 40.8883 48.2373 40.6855C48.0951 40.6855 47.9371 40.6855 47.7949 40.6855C47.8107 40.5451 47.9213 40.4047 48.0793 40.3423Z" fill="black"/>
<path d="M43.7659 40.763C44.0029 40.607 44.2715 40.4666 44.5243 40.3574C44.5401 40.451 44.6507 40.5758 44.5717 40.6694C44.3189 40.8254 44.0503 40.9658 43.7659 41.0282C43.7659 40.9346 43.7659 40.8566 43.7659 40.763Z" fill="black"/>
<path d="M35.202 40.8252C35.2494 40.5756 35.5338 40.404 35.7708 40.4976C35.9446 40.5756 35.9762 40.794 35.913 40.95C35.834 41.1996 35.5812 41.3556 35.3442 41.418C35.4548 41.2308 35.5654 41.0592 35.6602 40.8564C35.5022 40.8564 35.3442 40.8408 35.202 40.8252Z" fill="black"/>
<path d="M41.222 41.2782C41.6644 41.0286 42.0911 40.7946 42.5651 40.6074C42.5651 40.7166 42.5651 40.8102 42.5651 40.9194C42.1227 41.1066 41.7277 41.3874 41.2694 41.5278C41.2536 41.4498 41.2378 41.3562 41.222 41.2782Z" fill="black"/>
<path d="M33.7644 40.6846C33.9066 41.3242 34.033 41.9638 34.191 42.5878C34.2384 42.7438 34.2542 42.9154 34.3964 43.009C34.586 43.1338 34.8072 43.1962 35.0126 43.2586C35.6604 43.399 36.3082 43.1962 36.9244 43.0402C36.7664 42.8218 36.4662 42.8686 36.245 42.7906C36.1976 42.6346 36.2134 42.4474 36.3082 42.307C36.3872 42.1978 36.5294 42.151 36.6558 42.1198C37.0824 41.995 37.5564 41.995 37.9988 42.1198C38.1252 42.1666 38.2358 42.2914 38.2042 42.4318C38.141 42.7126 37.9514 42.931 37.825 43.165C38.1252 43.2742 38.457 43.2274 38.7572 43.1182C38.8046 42.6658 38.7256 42.1978 38.5202 41.7766C38.6466 41.5894 38.773 41.4178 38.8994 41.2306C38.9942 41.527 39.0416 41.8234 39.1048 42.1354C39.168 42.4162 39.1996 42.7126 39.1364 42.9934C39.089 43.243 38.9626 43.477 38.7572 43.633C38.457 43.867 38.0146 43.9138 37.6512 43.7578C37.509 43.6954 37.3668 43.5706 37.193 43.6174C36.6558 43.7422 36.1028 43.867 35.534 43.8982C35.2022 43.8826 34.8704 43.8358 34.5386 43.7578C34.2542 43.6642 34.0962 43.399 33.954 43.1494C33.7012 43.3054 33.4483 43.4926 33.1639 43.5862C33.0217 43.633 32.8796 43.6642 32.7216 43.6486C32.4846 43.6174 32.2791 43.5238 32.0579 43.4302C31.8683 43.5082 31.7577 43.6954 31.5681 43.7578C31.3785 43.7578 31.2363 43.6174 31.0783 43.5238C30.9677 43.633 30.8729 43.7422 30.7623 43.8358C30.6359 43.945 30.4621 43.8982 30.3199 43.9138C30.4463 43.6798 30.6675 43.5082 30.7939 43.2742C30.9361 43.009 30.9835 42.7126 31.0941 42.4318C31.1415 42.307 31.2047 42.1822 31.3153 42.1042C31.3943 42.0418 31.4891 41.9794 31.5839 41.917C31.6787 41.9482 31.7735 42.0106 31.8367 42.1042C31.9315 42.2914 31.9316 42.4942 32.0106 42.6814C32.058 42.7438 32.1369 42.775 32.2001 42.8062C32.7058 43.0714 33.3378 42.9154 33.7802 42.6034C33.7486 42.1042 33.6538 41.605 33.6222 41.1058C33.6064 40.981 33.7012 40.825 33.7644 40.6846ZM31.2995 42.9154C31.3153 43.0402 31.4417 43.1338 31.5681 43.1182C31.6945 43.1026 31.7893 42.9778 31.7735 42.853C31.7577 42.775 31.7419 42.697 31.6787 42.6658C31.5839 42.619 31.4733 42.619 31.3785 42.6034C31.3311 42.697 31.2837 42.8062 31.2995 42.9154Z" fill="black"/>
<path d="M14.425 40.9189C14.7568 40.9501 15.0728 40.9657 15.4046 41.0125C15.5152 41.0281 15.5152 41.1685 15.531 41.2465C15.5626 42.0889 15.6574 42.9157 15.6732 43.7581C16.0366 43.8049 16.4158 43.7737 16.7792 43.6957C16.8582 43.6333 16.8424 43.5085 16.8424 43.4305C16.7792 42.7129 16.7002 41.9797 16.637 41.2621C16.9846 41.2465 17.348 41.2465 17.6956 41.2465C17.7272 42.3229 17.7904 43.3993 17.7588 44.4757C17.2058 44.5849 16.6528 44.7721 16.084 44.8501C15.7048 44.8969 15.3414 44.9749 14.9622 45.0061C14.8832 44.9905 14.8674 44.8813 14.8516 44.8189C14.7252 43.8673 14.6304 42.9313 14.5198 41.9797C14.4882 41.6209 14.425 41.2777 14.425 40.9189Z" fill="black"/>
<path d="M49.5646 40.9346C49.7384 41.2154 49.8806 41.5274 50.007 41.8394C50.086 41.9954 49.8648 42.1358 49.9122 42.2918C50.0544 42.947 50.165 43.649 49.9438 44.3042C49.8332 44.0702 49.8332 43.8206 49.77 43.571C49.6277 42.869 49.5487 42.167 49.3749 41.4806C49.3433 41.2778 49.4697 41.1062 49.5646 40.9346Z" fill="black"/>
<path d="M43.102 41.4494C43.0546 41.2622 43.1652 41.1062 43.2442 40.9502C43.3706 41.543 43.5128 42.1358 43.6392 42.7442C43.6866 42.9314 43.734 43.1498 43.892 43.2746C44.0026 43.337 44.1448 43.3214 44.2396 43.2746C44.3976 43.1966 44.5082 43.0718 44.6346 42.9782C44.7294 43.0874 44.7768 43.259 44.919 43.3214C45.0928 43.3682 45.1876 43.1966 45.2982 43.103C45.4088 43.1498 45.5352 43.1966 45.6458 43.1966C45.7248 43.103 45.788 42.9938 45.8512 42.9002C46.0566 43.0562 46.2462 43.2278 46.4832 43.3058C46.5938 43.3526 46.7202 43.3526 46.8466 43.337C46.8782 43.1966 46.8782 43.0406 46.815 42.9002C46.7044 42.635 46.499 42.4322 46.3252 42.1982C46.3884 42.0578 46.4358 41.9174 46.499 41.777C46.8466 42.1046 47.2258 42.4322 47.3522 42.9002C47.3996 43.1498 47.447 43.415 47.3364 43.649C47.2732 43.7894 47.1152 43.8674 46.973 43.8986C46.7676 43.9298 46.5464 43.8674 46.341 43.8362C46.2936 43.8362 46.2462 43.8206 46.1988 43.8362C46.0092 43.8986 45.8512 44.039 45.6458 44.0546C45.5194 44.039 45.393 43.961 45.2824 43.8986C45.1718 43.9298 45.0454 43.9766 44.9348 43.9922C44.7768 43.9766 44.6504 43.883 44.524 43.805C44.3976 43.883 44.2712 43.9766 44.1132 44.0234C43.9868 44.0546 43.8446 44.0234 43.7656 43.9298C43.655 43.8206 43.6076 43.6646 43.5444 43.5242C43.3074 42.8378 43.26 42.1358 43.102 41.4494Z" fill="black"/>
<path d="M45.5195 41.4183C45.5669 41.2779 45.5669 41.0907 45.6933 40.9971C45.8829 41.0439 46.0883 41.0907 46.2147 41.2311C46.2305 41.3871 46.1357 41.5431 46.0409 41.6679C45.8671 41.5899 45.6933 41.5119 45.5195 41.4183Z" fill="black"/>
<path d="M48.664 41.4183C48.664 41.2623 48.7746 41.1375 48.8852 41.0283C49.0274 41.5119 49.2012 41.9955 49.296 42.4947C49.3592 42.8535 49.375 43.2279 49.296 43.5867C49.2328 43.8675 49.1538 44.1483 48.9484 44.3667C48.822 44.5071 48.6324 44.5695 48.4586 44.6007C48.19 44.6475 47.9056 44.6007 47.637 44.5227C48.0478 44.4603 48.4428 44.2887 48.6956 43.9611C48.8694 43.7427 48.9326 43.4775 48.9484 43.2123C48.9642 42.9159 48.9326 42.6351 48.8852 42.3543C48.822 42.0111 48.6798 41.7303 48.664 41.4183Z" fill="black"/>
<path d="M46.7361 41.1533C47.3839 41.3873 47.9527 41.7929 48.3951 42.3233C48.6637 42.6509 48.7743 43.0877 48.7111 43.5089C48.4267 43.1345 48.2055 42.6821 47.8579 42.3545C47.6367 42.1361 47.3681 41.9957 47.1153 41.8085C46.8941 41.6525 46.8309 41.3873 46.7361 41.1533Z" fill="black"/>
<path d="M42.7074 42.4476C42.7074 42.3072 42.7706 42.1824 42.8022 42.042C43.1498 42.4008 43.371 42.9 43.292 43.3992C43.2446 43.7892 42.9286 44.1012 42.5968 44.2728C42.2966 44.4288 41.9332 44.4912 41.6014 44.4288C41.3486 44.3664 41.1432 44.1948 41.0168 43.9764C40.922 43.836 40.8904 43.6644 40.843 43.5084C40.7324 43.0092 40.8904 42.4632 41.2538 42.1044C41.2222 42.4476 41.1274 42.7908 41.1748 43.134C41.2064 43.3212 41.2696 43.524 41.4434 43.6176C41.6804 43.758 41.9648 43.7268 42.2176 43.6956C42.4072 43.6644 42.5968 43.6176 42.7548 43.5084C42.897 43.3992 42.9444 43.212 42.9128 43.0404C42.897 42.822 42.7706 42.6348 42.7074 42.4476Z" fill="black"/>
<path d="M30.4463 42.1201C30.4937 42.1513 30.5569 42.1669 30.6043 42.1981C30.5885 42.2449 30.5885 42.2761 30.5727 42.3229C30.5253 42.3385 30.4779 42.3541 30.4305 42.3697C30.4463 42.2917 30.4463 42.1981 30.4463 42.1201Z" fill="black"/>
<path d="M41.759 42.7753C41.759 42.5569 41.7748 42.3385 41.838 42.1201C41.996 42.1981 42.1698 42.2449 42.2962 42.3853C42.3594 42.4477 42.3594 42.5569 42.3278 42.6349C42.2962 42.7441 42.2488 42.8377 42.2172 42.9313C42.0592 42.8845 41.917 42.8377 41.759 42.7753Z" fill="black"/>
<path d="M38.378 44.398C38.5202 44.32 38.6624 44.2264 38.7888 44.1172C38.9784 44.1952 39.1522 44.2888 39.326 44.3824C39.2312 44.5852 39.1206 44.7568 38.9942 44.9284C38.8362 44.8504 38.6782 44.7568 38.5044 44.71C38.3622 44.7568 38.2674 44.8816 38.141 44.9752C37.983 44.8972 37.8092 44.8192 37.6986 44.6632C37.6986 44.4916 37.8092 44.3668 37.904 44.242C38.0778 44.2576 38.22 44.3512 38.378 44.398Z" fill="black"/>
<path d="M48.1266 45.0997C48.4742 44.8969 48.8218 44.7253 49.201 44.5693C49.2168 44.6317 49.2326 44.7097 49.2484 44.7721C48.9008 44.9749 48.5374 45.1777 48.1424 45.3181C48.1582 45.2557 48.1424 45.1777 48.1266 45.0997Z" fill="black"/>
<path d="M14.9465 45.7393C15.4521 45.8017 15.9261 45.9889 16.4159 46.1137C17.3481 46.3789 18.2803 46.6441 19.2125 46.9249C19.5127 47.0185 19.8287 47.0809 20.1131 47.2057C20.1921 47.2369 20.2237 47.3149 20.2553 47.3929C20.3185 47.5801 20.3817 47.7829 20.4449 47.9701C20.4923 48.1261 20.5397 48.2821 20.5397 48.4537C19.5443 49.0465 18.5015 49.5457 17.5061 50.1385C17.5535 50.3413 17.6483 50.5285 17.7431 50.7157C17.9801 51.1837 18.2171 51.6673 18.4383 52.1353C18.5015 52.2757 18.5805 52.4161 18.6595 52.5565C19.1967 52.3225 19.7023 52.0417 20.2395 51.8077C20.3501 51.7609 20.4449 51.7141 20.5555 51.6829C20.5871 51.6673 20.6345 51.6985 20.6503 51.7297C20.7767 51.9793 20.9189 52.2289 20.9979 52.4941C20.3975 52.8217 19.7655 53.0869 19.1809 53.4457C19.7181 54.2257 20.2869 55.0057 20.8715 55.7545C21.4877 55.4269 22.0565 55.0057 22.6727 54.6625C22.7359 54.6313 22.8465 54.5845 22.9097 54.6469C23.7471 55.5673 24.5529 56.5033 25.3429 57.4549C25.3903 57.5329 25.4693 57.6265 25.4061 57.7201C25.2481 57.9541 25.0269 58.1257 24.8531 58.3441C24.4423 58.8121 24.0315 59.2801 23.6207 59.7325C23.5575 59.7949 23.4627 59.7793 23.3995 59.7325C21.0453 57.6889 18.9913 55.2709 17.5061 52.5253C16.6687 50.9965 16.0209 49.3897 15.4837 47.7205C15.3257 47.2369 15.1835 46.7533 15.0571 46.2541C15.0097 46.0825 14.9781 45.9109 14.9465 45.7393ZM16.4949 47.2681C16.6687 47.9389 16.8741 48.5941 17.0795 49.2493C17.8853 48.8593 18.6595 48.4069 19.4653 48.0169C19.4653 47.9701 19.4653 47.9389 19.4653 47.8921C18.4857 47.6893 17.5061 47.4397 16.4949 47.2681ZM21.7247 56.3629C21.6457 56.4877 21.7405 56.6281 21.8195 56.7217C22.1513 57.1273 22.5147 57.5173 22.8623 57.9073C23.0519 58.1101 23.2099 58.3285 23.4311 58.4845C23.6523 58.1881 23.8735 57.9073 24.0789 57.5953C24.1263 57.5329 24.0947 57.4393 24.0473 57.3925C23.9209 57.2677 23.7945 57.1429 23.6681 57.0181C23.2573 56.6125 22.8623 56.1757 22.4199 55.8013C22.1829 55.9729 21.9143 56.1133 21.7247 56.3629Z" fill="black"/>
<path d="M35.8185 47.0498C35.9291 47.0654 36.0713 47.0186 36.1661 47.1122C36.4189 47.4242 36.4347 47.8766 36.2293 48.2198C36.1345 48.2822 36.0081 48.251 35.8817 48.251C35.9291 47.8454 35.9449 47.4242 35.8185 47.0498Z" fill="black"/>
<path d="M44.1926 48.5625C43.9714 48.1881 44.0978 47.7202 44.319 47.377C44.4296 47.377 44.5402 47.377 44.6508 47.377C44.5244 47.767 44.4928 48.1725 44.5086 48.5781C44.398 48.5781 44.3032 48.5625 44.1926 48.5625Z" fill="black"/>
<path d="M35.9767 50.3574C36.0557 49.9518 36.0557 49.5462 35.9451 49.1406C36.0715 49.1562 36.2295 49.1094 36.3243 49.2186C36.5297 49.5306 36.5455 49.9986 36.3085 50.295C36.1979 50.373 36.0715 50.3418 35.9767 50.3574Z" fill="black"/>
<path d="M44.0502 49.499C44.1608 49.499 44.2556 49.4834 44.3662 49.4834C44.2556 49.8734 44.2082 50.279 44.2556 50.6846C44.1608 50.6846 44.0502 50.669 43.9554 50.669C43.7184 50.3102 43.829 49.8422 44.0502 49.499Z" fill="black"/>
<path d="M14.3619 51.0434C14.6305 50.903 14.8991 50.7626 15.1993 50.7002C15.4521 51.1682 15.7049 51.6206 15.8945 52.1042C15.6259 52.2446 15.3731 52.4162 15.0571 52.463C14.8359 51.995 14.5831 51.527 14.3619 51.0434Z" fill="black"/>
<path d="M35.771 50.9658C35.8974 50.9658 36.008 50.9814 36.1344 51.0126C36.3556 51.3246 36.403 51.7614 36.2134 52.1046C36.1344 52.2294 35.9606 52.1982 35.85 52.2138C35.8658 51.9174 35.9606 51.621 35.8816 51.3246C35.8342 51.1998 35.8026 51.075 35.771 50.9658Z" fill="black"/>
<path d="M44.0504 51.371C44.1294 51.2774 44.2716 51.293 44.3822 51.293C44.2716 51.683 44.24 52.1042 44.2716 52.5098C44.161 52.5098 44.0504 52.5098 43.9556 52.5098C43.766 52.151 43.7976 51.6986 44.0504 51.371Z" fill="black"/>
<path d="M15.2941 52.7905C15.5469 52.6657 15.7997 52.5565 16.0525 52.4473C16.2421 52.6501 16.3843 52.8841 16.5107 53.1181C16.6529 53.3677 16.8267 53.5861 16.9215 53.8669C16.6687 54.0073 16.4317 54.1633 16.1473 54.2413C15.8945 53.7421 15.5469 53.3053 15.2941 52.7905Z" fill="black"/>
<path d="M57.7173 55.0996C58.0965 55.3492 58.3967 55.6768 58.7127 55.9732C58.9339 56.1604 59.1393 56.3788 59.3605 56.5504C59.5659 56.722 59.7713 56.9092 59.9451 57.112C59.5659 57.7048 59.0287 58.1728 58.5705 58.7032C58.3967 58.8904 58.2703 59.1088 58.0807 59.2804C57.8437 59.4988 57.6067 59.7172 57.3855 59.9512C57.0853 60.2476 56.7535 60.5128 56.4533 60.7936C56.2637 60.9808 56.0425 61.1056 55.8371 61.2772C55.5211 61.5268 55.1893 61.792 54.8417 62.0104C53.7673 62.7592 52.6139 63.3988 51.4131 63.9604C50.1807 64.522 48.9009 64.9744 47.5895 65.3332C45.7725 65.8324 43.8923 66.1444 42.0121 66.3004C42.0911 66.0664 42.1859 65.8324 42.2807 65.5984C42.8811 64.2412 43.4973 62.884 44.0819 61.5112C44.1135 61.4176 44.2083 61.3552 44.3189 61.3396C44.7613 61.2928 45.2195 61.246 45.6619 61.1836C45.8673 61.5112 45.9463 61.9012 46.0885 62.26C46.2939 62.8216 46.5151 63.3676 46.7205 63.9292C46.7995 64.1164 46.8469 64.3192 46.9733 64.4908C47.1945 64.4752 47.4157 64.3972 47.6211 64.3192C48.2215 64.1164 48.8377 63.9136 49.4381 63.7108C49.3275 62.9932 49.0115 62.3224 48.8377 61.6204C49.1379 61.4956 49.4223 61.3552 49.7383 61.2928C49.9753 61.948 50.1965 62.6032 50.4809 63.2428C51.3499 62.8216 52.2189 62.4004 53.0879 61.9636C52.5191 60.9184 51.8081 59.9356 51.2235 58.906C51.4131 58.7032 51.6343 58.5316 51.8397 58.3444C51.8871 58.2976 51.9503 58.2508 52.0293 58.2508C52.1557 58.3912 52.2347 58.5628 52.3453 58.7188C52.5981 59.14 52.8825 59.53 53.1353 59.9512C53.4039 60.4036 53.6725 60.856 53.9569 61.2928C54.3361 61.0744 54.6679 60.8092 55.0155 60.5596C55.1261 60.4816 55.2367 60.388 55.3473 60.3256C55.4263 60.2788 55.4895 60.2164 55.5527 60.154C55.3315 59.764 55.0471 59.4052 54.8101 59.0308C54.6837 58.8436 54.5099 58.672 54.4625 58.4536C54.6047 58.282 54.7627 58.126 54.9207 57.97C55.0787 57.8296 55.2051 57.6736 55.3473 57.5176C55.6475 57.2056 55.9635 56.9092 56.2479 56.5972C56.7693 56.0824 57.2275 55.5676 57.7173 55.0996ZM57.0695 57.0964C56.6587 57.4396 56.2953 57.8296 55.8845 58.1884C55.8055 58.2508 55.7265 58.3288 55.6633 58.4068C55.6159 58.4536 55.6475 58.5316 55.6791 58.5784C55.8529 58.906 56.0583 59.1868 56.2637 59.4988C56.6429 59.2492 56.9273 58.906 57.2433 58.5784C57.5435 58.2664 57.8437 57.9544 58.1439 57.658C58.2861 57.5176 58.4599 57.3772 58.5547 57.19C58.3335 56.9092 58.0333 56.7064 57.7963 56.4568C57.5277 56.6284 57.3223 56.8936 57.0695 57.0964ZM44.1451 63.976C43.9713 64.3192 43.7501 64.6468 43.6395 65.0212C43.9713 64.99 44.3031 64.9432 44.6191 64.8964C44.9983 64.834 45.3933 64.8184 45.7567 64.7092C45.7725 64.4128 45.6303 64.132 45.5355 63.8512C45.3617 63.352 45.2195 62.8372 44.9983 62.3692C44.6823 62.8684 44.4295 63.43 44.1451 63.976Z" fill="black"/>
<path d="M25.9119 55.9414C26.1805 56.1286 26.4333 56.3314 26.6861 56.5498C26.7967 56.6278 26.9073 56.7526 26.9073 56.893C26.9863 57.9382 27.1127 58.9678 27.1917 60.013C27.2233 60.403 27.2391 60.8086 27.3497 61.1986C28.0291 60.325 28.6295 59.389 29.2773 58.4998C29.5617 58.5778 29.8145 58.7338 30.0515 58.8898C29.7987 59.389 29.5143 59.8726 29.2299 60.3562C28.9929 60.7462 28.7717 61.1362 28.5505 61.5262C28.4557 61.6978 28.3609 61.8538 28.2977 62.041C29.2931 62.5402 30.2885 63.0394 31.2839 63.5386C31.6473 62.9302 31.9159 62.275 32.2793 61.6822C32.6111 61.7446 32.9271 61.8538 33.2273 61.963C33.0377 62.4934 32.7849 62.9926 32.5637 63.5074C32.5163 63.6166 32.5005 63.7258 32.4847 63.835C33.1957 64.0846 33.8909 64.3966 34.6019 64.6306C34.7757 63.9598 34.9021 63.289 35.0917 62.6338C35.4393 62.6182 35.7869 62.6182 36.1187 62.665C36.0081 63.3514 35.8027 64.0378 35.7395 64.7398C36.4347 64.8802 37.1457 64.9894 37.8409 65.0986C37.9673 64.459 37.9989 63.8038 38.0937 63.1642C38.4255 63.1174 38.7573 63.1018 39.0891 63.1486C39.0575 63.6946 38.9627 64.225 38.8837 64.7554C38.8205 65.2234 38.7573 65.6758 38.6783 66.1438C37.4933 66.1438 36.3241 65.9722 35.1549 65.7382C34.8547 65.6914 34.5545 65.6446 34.2701 65.5666C34.1437 65.5354 34.0173 65.4886 33.8909 65.4418C31.7579 64.849 29.7039 64.0066 27.7921 62.9146C27.3497 62.665 26.9073 62.3842 26.4807 62.119C25.8329 61.7134 25.1851 61.2922 24.6005 60.8086C24.8059 60.5902 24.9481 60.3094 25.2167 60.1378C25.5485 60.2626 25.8329 60.4966 26.1647 60.5902C26.1647 59.8102 26.0857 59.0302 26.0225 58.2502C25.9751 57.6886 25.9593 57.1114 25.9119 56.5498C25.9277 56.3626 25.9277 56.1442 25.9119 55.9414Z" fill="black"/>
<path d="M40.1793 61.6521C40.4795 61.5897 40.7797 61.5897 41.0799 61.6053C41.1115 62.5881 41.0167 63.5709 41.0009 64.5537C41.0009 64.6629 40.9851 64.7878 40.9693 64.897C40.9535 65.3182 40.9693 65.7394 40.9061 66.1606C40.6059 66.1606 40.3057 66.1762 40.0055 66.1606C39.9739 65.8954 40.0055 65.6458 40.0055 65.3806C40.0371 64.6474 40.0213 63.9142 40.0687 63.1809C40.1319 62.6817 40.1003 62.1669 40.1793 61.6521Z" fill="black"/>
<path d="M49.2799 66.0197C49.7223 65.8637 50.1647 65.6765 50.6071 65.5361C50.7967 65.8169 50.9547 66.1289 51.1285 66.4253C51.0179 66.5033 50.8915 66.5657 50.7651 66.6125C50.4017 66.7373 50.0541 66.8777 49.6907 67.0025C49.5485 66.6749 49.3431 66.3785 49.2799 66.0197Z" fill="black"/>
<path d="M47.4946 66.5658C47.9844 66.4566 48.4584 66.2382 48.964 66.207C49.122 66.4878 49.28 66.7686 49.3906 67.0806C48.885 67.221 48.3794 67.3926 47.8422 67.4706C47.7158 67.1742 47.542 66.8934 47.4946 66.5658Z" fill="black"/>
</svg>
