<svg width="30" height="31" viewBox="0 0 30 31" fill="none" xmlns="http://www.w3.org/2000/svg">
<path d="M15 30.1426C23.2843 30.1426 30 23.4268 30 15.1426C30 6.85831 23.2843 0.142578 15 0.142578C6.71573 0.142578 0 6.85831 0 15.1426C0 23.4268 6.71573 30.1426 15 30.1426Z" fill="#004868"/>
<path d="M23.9625 16.3494V22.5336H20.377V16.7639C20.377 15.3152 19.8594 14.3258 18.5612 14.3258C17.5705 14.3258 16.982 14.9919 16.7221 15.6368C16.6277 15.8673 16.6034 16.1874 16.6034 16.5107V22.5333H13.0177C13.0177 22.5333 13.0658 12.7613 13.0177 11.7498H16.6036V13.2779C16.5964 13.29 16.5863 13.3017 16.5798 13.3132H16.6036V13.2779C17.0801 12.5448 17.9299 11.4966 19.835 11.4966C22.1939 11.4966 23.9625 13.0378 23.9625 16.3494ZM9.26674 6.55176C8.04023 6.55176 7.23779 7.35687 7.23779 8.41466C7.23779 9.44999 8.01696 10.2784 9.21968 10.2784H9.24295C10.4935 10.2784 11.2711 9.44999 11.2711 8.41466C11.2473 7.35687 10.4935 6.55176 9.26674 6.55176ZM7.4509 22.5336H11.0353V11.7498H7.4509V22.5336Z" fill="#F1F2F2"/>
</svg>
