<svg width="30" height="31" viewBox="0 0 30 31" fill="none" xmlns="http://www.w3.org/2000/svg">
<path d="M15 30.1426C23.2843 30.1426 30 23.4268 30 15.1426C30 6.85831 23.2843 0.142578 15 0.142578C6.71573 0.142578 0 6.85831 0 15.1426C0 23.4268 6.71573 30.1426 15 30.1426Z" fill="#004868"/>
<path d="M24.1884 10.9226C23.5456 11.2076 22.8542 11.4004 22.129 11.4865C22.8694 11.0429 23.4376 10.341 23.7058 9.50325C23.013 9.91423 22.2453 10.2124 21.429 10.3731C20.7749 9.67652 19.8431 9.24121 18.8112 9.24121C16.8315 9.24121 15.2258 10.8469 15.2258 12.8266C15.2258 13.1077 15.2576 13.3812 15.3191 13.6438C12.3393 13.4943 9.69727 12.067 7.92876 9.89712C7.62019 10.4265 7.44318 11.0429 7.44318 11.6999C7.44318 12.9435 8.07662 14.0414 9.03815 14.6842C8.4507 14.6657 7.89747 14.5045 7.4143 14.2352C7.41403 14.2505 7.41403 14.2657 7.41403 14.2807C7.41403 16.0179 8.65044 17.4669 10.2903 17.7961C9.98979 17.8784 9.6724 17.922 9.34592 17.922C9.11436 17.922 8.89002 17.8998 8.6713 17.8581C9.12746 19.2822 10.4513 20.3189 12.0206 20.348C10.7933 21.3098 9.24752 21.8828 7.56725 21.8828C7.27846 21.8828 6.99236 21.866 6.7124 21.8326C8.29829 22.8503 10.1834 23.4436 12.2081 23.4436C18.8029 23.4436 22.4095 17.9803 22.4095 13.2419C22.4095 13.0865 22.406 12.9317 22.3991 12.7782C23.1002 12.2729 23.7079 11.6416 24.1884 10.9226Z" fill="#F1F2F2"/>
</svg>
